<?xml version="1.0" encoding="utf-8"?>
<!-- Generator: Adobe Illustrator 14.0.0, SVG Export Plug-In . SVG Version: 6.00 Build 43363)  -->
<!DOCTYPE svg PUBLIC "-//W3C//DTD SVG 1.1//EN" "http://www.w3.org/Graphics/SVG/1.1/DTD/svg11.dtd">
<svg version="1.1" id="Слой_1" xmlns="http://www.w3.org/2000/svg" xmlns:xlink="http://www.w3.org/1999/xlink" x="0px" y="0px"
	 width="64px" height="64px" viewBox="0 0 64 64" enable-background="new 0 0 64 64" xml:space="preserve">
<path fill="#5C5A59" d="M16.832,29.311c-3.328,0-6.034-2.958-6.034-6.596c0-3.639,2.707-6.598,6.034-6.598
	c3.319,0,6.019,2.959,6.019,6.598C22.851,26.353,20.151,29.311,16.832,29.311 M16.832,20.708c-0.78,0-1.44,0.92-1.44,2.005
	c0,1.086,0.661,2.001,1.44,2.001c0.771,0,1.426-0.915,1.426-2.001C18.258,21.646,17.59,20.708,16.832,20.708"/>
<path fill="#5C5A59" d="M24.01,42.038H9.647c-1.202,0-2.203-0.933-2.289-2.135l-0.323-4.643c-0.156-2.311,1.486-4.777,3.747-5.616
	c3.93-1.403,8.195-1.392,12.066-0.007c2.282,0.84,3.935,3.311,3.769,5.631l-0.314,4.625C26.22,41.103,25.222,42.038,24.01,42.038
	 M11.791,37.444h10.076l0.165-2.487c-0.005-0.24-0.355-0.855-0.75-1.002c-2.843-1.017-6.051-1.021-8.931,0.006
	c-0.367,0.139-0.723,0.758-0.731,1.001L11.791,37.444z"/>
<path fill="#5C5A59" d="M35.268,5.148H18.043c-2.221,0-4.02,1.8-4.02,4.019c0,2.221,1.799,4.021,4.02,4.021h17.225
	c2.223,0,4.021-1.799,4.021-4.021C39.288,6.948,37.49,5.148,35.268,5.148"/>
<path fill="#5C5A59" d="M40.629,26.012h-9.567c-1.27,0-2.297-1.028-2.297-2.298c0-1.269,1.027-2.296,2.297-2.296h9.567
	c1.272,0,2.297,1.027,2.297,2.296C42.926,24.984,41.901,26.012,40.629,26.012"/>
<path fill="#5C5A59" d="M40.629,33.284h-9.567c-1.27,0-2.297-1.027-2.297-2.296c0-1.27,1.027-2.297,2.297-2.297h9.567
	c1.272,0,2.297,1.027,2.297,2.297C42.926,32.257,41.901,33.284,40.629,33.284"/>
<path fill="#5C5A59" d="M49.545,60.913c-7.861,0-14.258-6.394-14.258-14.258s6.396-14.259,14.258-14.259
	c7.862,0,14.259,6.395,14.259,14.259S57.407,60.913,49.545,60.913 M49.545,34.693c-6.596,0-11.96,5.368-11.96,11.962
	s5.366,11.962,11.96,11.962c6.596,0,11.962-5.369,11.962-11.962C61.507,40.062,56.141,34.693,49.545,34.693"/>
<path fill="#5C5A59" d="M36.439,49.078H2.562c-1.269,0-2.295-1.033-2.295-2.3V9.269c0-1.268,1.026-2.297,2.295-2.297h47.151
	c1.27,0,2.298,1.029,2.298,2.297v24.287h-4.595v-21.99H4.859v32.916h31.581V49.078z"/>
<path fill="#5C5A59" d="M49.545,55.301c-1.271,0-2.298-1.028-2.298-2.299V40.307c0-1.266,1.027-2.296,2.298-2.296
	c1.268,0,2.297,1.03,2.297,2.296v12.695C51.842,54.273,50.813,55.301,49.545,55.301"/>
<path fill="#5C5A59" d="M55.892,48.952H43.194c-1.267,0-2.297-1.028-2.297-2.297s1.03-2.298,2.297-2.298h12.697
	c1.268,0,2.298,1.029,2.298,2.298S57.159,48.952,55.892,48.952"/>
</svg>
