<?xml version="1.0" encoding="utf-8"?>
<!-- Generator: Adobe Illustrator 14.0.0, SVG Export Plug-In . SVG Version: 6.00 Build 43363)  -->
<!DOCTYPE svg PUBLIC "-//W3C//DTD SVG 1.1//EN" "http://www.w3.org/Graphics/SVG/1.1/DTD/svg11.dtd">
<svg version="1.1" id="Слой_1" xmlns="http://www.w3.org/2000/svg" xmlns:xlink="http://www.w3.org/1999/xlink" x="0px" y="0px"
	 width="64px" height="64px" viewBox="0 0 64 64" enable-background="new 0 0 64 64" xml:space="preserve">
<path fill="#EB8500" d="M62.238,33.471c-0.353,0.356-0.84,0.578-1.38,0.578H2.146c-1.075,0-1.948-0.88-1.948-1.969
	c0-1.088,0.874-1.968,1.948-1.968h58.713c1.079,0,1.949,0.88,1.949,1.968C62.808,32.626,62.59,33.117,62.238,33.471"/>
<path fill="#EB8500" d="M63.276,33.707L36.777,60.469c-0.764,0.767-1.996,0.767-2.755,0c-0.763-0.767-0.763-2.016,0-2.783
	l25.122-25.37L34.022,6.943c-0.763-0.768-0.763-2.013,0-2.783c0.759-0.768,1.991-0.766,2.755,0.003l26.499,26.762
	C64.036,31.688,64.036,32.938,63.276,33.707"/>
</svg>
