<?xml version="1.0" encoding="utf-8"?>
<!-- Generator: Adobe Illustrator 14.0.0, SVG Export Plug-In . SVG Version: 6.00 Build 43363)  -->
<!DOCTYPE svg PUBLIC "-//W3C//DTD SVG 1.1//EN" "http://www.w3.org/Graphics/SVG/1.1/DTD/svg11.dtd">
<svg version="1.1" id="Слой_1" xmlns="http://www.w3.org/2000/svg" xmlns:xlink="http://www.w3.org/1999/xlink" x="0px" y="0px"
	 width="64px" height="64px" viewBox="0 0 64 64" enable-background="new 0 0 64 64" xml:space="preserve">
<g>
	<path fill="#58595B" d="M25.58,8.602h12.833v4.495h4.277V8.368c-0.003-2.235-1.81-4.04-4.041-4.042H25.341
		c-2.232,0.002-4.039,1.807-4.039,4.042v4.729h4.278V8.602z"/>
	<path fill="#58595B" d="M57.423,14.545H52.39h-9.7h-4.277H25.58h-4.278H6.569c-3.412,0-6.18,2.766-6.18,6.177v6.89h9.284v-0.544
		c0-1.931,1.514-3.494,3.385-3.494h5.302c1.871,0,3.385,1.563,3.385,3.494v0.544H41.51v-0.544c0-1.931,1.515-3.494,3.384-3.494
		h5.303c1.868,0,3.386,1.563,3.386,3.494v0.544h10.019v-6.89C63.601,17.312,60.835,14.545,57.423,14.545z"/>
	<path fill="#58595B" d="M53.582,32.422c0,1.928-1.518,3.491-3.386,3.491h-5.303c-1.869,0-3.384-1.563-3.384-3.491v-2.909h-1.912
		H24.39h-2.164h-0.48v2.909c0,1.928-1.515,3.491-3.385,3.491h-5.302c-1.871,0-3.385-1.563-3.385-3.491v-2.909H0.389v24.716
		c0,3.41,2.768,6.178,6.18,6.178h50.854c3.412,0,6.178-2.768,6.178-6.178V29.513H53.582V32.422z"/>
	<path fill="#58595B" d="M19.707,31.772c0,1.3-1.019,2.349-2.277,2.349h-3.566c-1.256,0-2.277-1.049-2.277-2.349V28.17
		c0-1.295,1.021-2.346,2.277-2.346h3.566c1.258,0,2.277,1.051,2.277,2.346V31.772z"/>
	<path fill="#58595B" d="M51.737,31.708c0,1.296-1.019,2.349-2.277,2.349h-3.565c-1.258,0-2.282-1.053-2.282-2.349v-3.601
		c0-1.297,1.024-2.349,2.282-2.349h3.565c1.259,0,2.277,1.052,2.277,2.349V31.708z"/>
</g>
</svg>
