<?xml version="1.0" encoding="utf-8"?>
<!-- Generator: Adobe Illustrator 14.0.0, SVG Export Plug-In . SVG Version: 6.00 Build 43363)  -->
<!DOCTYPE svg PUBLIC "-//W3C//DTD SVG 1.1//EN" "http://www.w3.org/Graphics/SVG/1.1/DTD/svg11.dtd">
<svg version="1.1" id="Слой_1" xmlns="http://www.w3.org/2000/svg" xmlns:xlink="http://www.w3.org/1999/xlink" x="0px" y="0px"
	 width="64px" height="64px" viewBox="0 0 64 64" enable-background="new 0 0 64 64" xml:space="preserve">
<g>
	<g>
		<g>
			<path fill="#58595B" d="M44.714,19.23h-1.607v6.067h1.607c0.971,0,1.758-0.788,1.758-1.759V20.99
				C46.472,20.019,45.685,19.23,44.714,19.23z"/>
			<path fill="#58595B" d="M44.714,26.16h-1.607v6.066h1.607c0.971,0,1.758-0.789,1.758-1.759v-2.549
				C46.472,26.947,45.685,26.16,44.714,26.16z"/>
			<path fill="#58595B" d="M44.714,33.086h-1.607v6.067h1.607c0.971,0,1.758-0.788,1.758-1.76v-2.548
				C46.472,33.877,45.685,33.086,44.714,33.086z"/>
			<path fill="#58595B" d="M41.273,17.897H22.762c-0.584,0-1.056,0.472-1.056,1.058v23.799c0,0.584,0.472,1.058,1.056,1.058h18.511
				c0.583,0,1.058-0.474,1.058-1.058V18.955C42.331,18.37,41.856,17.897,41.273,17.897z M38.233,27.887h-12.43V21.82h12.43V27.887z"
				/>
			<rect x="26.906" y="23.603" fill="#58595B" width="10.357" height="0.665"/>
			<rect x="26.906" y="25.45" fill="#58595B" width="10.357" height="0.667"/>
		</g>
	</g>
	<g>
		<rect x="0.465" y="29.557" fill="#58595B" width="9.954" height="2.595"/>
		<rect x="53.751" y="29.557" fill="#58595B" width="9.954" height="2.595"/>
	</g>
</g>
</svg>
