<?xml version="1.0" encoding="utf-8"?>
<!-- Generator: Adobe Illustrator 14.0.0, SVG Export Plug-In . SVG Version: 6.00 Build 43363)  -->
<!DOCTYPE svg PUBLIC "-//W3C//DTD SVG 1.1//EN" "http://www.w3.org/Graphics/SVG/1.1/DTD/svg11.dtd">
<svg version="1.1" id="Слой_1" xmlns="http://www.w3.org/2000/svg" xmlns:xlink="http://www.w3.org/1999/xlink" x="0px" y="0px"
	 width="64px" height="64px" viewBox="0 0 64 64" enable-background="new 0 0 64 64" xml:space="preserve">
<g>
	<path fill="#5C5A59" d="M16.577,40.867l-0.364-0.087h-0.298c-0.403,0-1.225,0-5.505,2.284l1.458-4.16l-1.279-0.892
		c-4.008-2.736-6.211-6.417-6.211-10.334c0-7.883,8.881-14.298,19.803-14.298c5.94,0,11.266,1.906,14.903,4.911
		c0.9-0.079,1.822-0.141,2.752-0.141c0.947,0,1.885,0.062,2.811,0.141c-4.168-5.371-11.762-8.986-20.465-8.986
		c-13.144,0-23.839,8.244-23.839,18.374c0,4.787,2.417,9.371,6.695,12.766L2.98,51.961l4.737-2.751
		c3.098-1.784,6.896-3.819,8.164-4.296c1.777,0.503,3.616,0.829,5.494,1.001c-1.079-1.394-1.919-2.888-2.497-4.471
		C18.102,41.287,17.331,41.098,16.577,40.867"/>
	<path fill="#5C5A59" d="M63.658,36.517c0-9.005-9.77-16.331-21.824-16.331s-21.83,7.325-21.83,16.331
		c0,9.023,9.775,16.332,21.83,16.332c2.898,0,5.658-0.425,8.186-1.185c0.846-0.269,9.279,4.626,9.279,4.626l-2.725-7.743
		C60.918,45.558,63.658,41.292,63.658,36.517 M53.551,41.789H31.028v-2.137h22.522V41.789z M53.551,37.523H31.028v-2.133h22.522
		V37.523z M53.551,33.271H31.028v-2.132h22.522V33.271z"/>
</g>
</svg>
