<?xml version="1.0" encoding="utf-8"?>
<!-- Generator: Adobe Illustrator 14.0.0, SVG Export Plug-In . SVG Version: 6.00 Build 43363)  -->
<!DOCTYPE svg PUBLIC "-//W3C//DTD SVG 1.1//EN" "http://www.w3.org/Graphics/SVG/1.1/DTD/svg11.dtd">
<svg version="1.1" id="Слой_1" xmlns="http://www.w3.org/2000/svg" xmlns:xlink="http://www.w3.org/1999/xlink" x="0px" y="0px"
	 width="64px" height="64px" viewBox="0 0 64 64" enable-background="new 0 0 64 64" xml:space="preserve">
<g>
	<g>
		<g>
			<path fill="#5C5A59" d="M42.916,55.725c0.06-0.032,0.122-0.059,0.182-0.089c-0.022-0.033-0.046-0.061-0.064-0.095
				C43,55.596,42.953,55.668,42.916,55.725z"/>
			<path fill="#5C5A59" d="M31.407,54.838c-4.661,0-9.003-1.334-12.708-3.612c3.335,0.031-2.479-5.074,1.525-5.856
				c4.203-0.827,5.973-5.633,4.627-5.559c-1.344,0.069-3.898-0.694-5.696-2.952c-1.801-2.275-3.377-1.757-5.233-1.399
				c-1.623,0.319-3.624,5.017-4.12,6.25c-1.265-2.422-2.122-5.082-2.51-7.894c2.062-1.078,5.427-2.893,6.642-3.896
				c1.793-1.486-0.597-2.086-0.891-2.983c-0.294-0.896,0-2.983,0-5.056c0-2.092,4.173-2.092,5.652-4.173
				c1.065-1.486-0.884-4.764-2.101-6.539c4.11-3.163,9.238-5.065,14.812-5.065c1.477,0,2.917,0.155,4.326,0.408
				c0.412,2.567,1.271,6.099,2.933,7.02c2.688,1.488,5.939,4.766,7.143,5.356c1.195,0.595,2.676,5.667,2.385,7.752
				c-0.212,1.471-2.038,3.092-2.785,4.651l12.415,7.734c0.877-2.695,1.36-5.563,1.36-8.549c0-15.313-12.465-27.768-27.773-27.768
				c-15.316,0-27.773,12.455-27.773,27.768c0,15.315,12.457,27.774,27.773,27.774c0.581,0,1.148-0.053,1.722-0.087l-0.649-3.382
				C32.123,54.8,31.769,54.838,31.407,54.838z M55.475,34.071c-0.525-2.084-1.542-4.096-3.705-5.648
				c-1.479-1.045-2.687-5.657-1.789-7.151c0.537-0.891,1.934-1.675,2.961-2.163c1.8,3.396,2.828,7.26,2.828,11.367
				C55.77,31.701,55.65,32.895,55.475,34.071z"/>
			<path fill="#5C5A59" d="M48.286,46.259l11.599-2.312L30.831,25.845l-0.685,0.477l6.467,33.607l6.315-9.99l6.122,8.922
				c1.162,1.68,3.298,2.22,4.777,1.206c1.472-1.016,1.735-3.207,0.583-4.89L48.286,46.259z"/>
		</g>
	</g>
</g>
</svg>
