<?xml version="1.0" encoding="utf-8"?>
<!-- Generator: Adobe Illustrator 14.0.0, SVG Export Plug-In . SVG Version: 6.00 Build 43363)  -->
<!DOCTYPE svg PUBLIC "-//W3C//DTD SVG 1.1//EN" "http://www.w3.org/Graphics/SVG/1.1/DTD/svg11.dtd">
<svg version="1.1" id="Слой_1" xmlns="http://www.w3.org/2000/svg" xmlns:xlink="http://www.w3.org/1999/xlink" x="0px" y="0px"
	 width="64px" height="64px" viewBox="0 0 64 64" enable-background="new 0 0 64 64" xml:space="preserve">
<path fill="#5C5A59" d="M47.221,3.036c-3.543-4.138-9.021-3.009-12.193-0.316C33.651,3.877,32.695,5.74,32,7.771
	c-0.687-2.031-1.645-3.894-3.017-5.051c-3.176-2.693-8.654-3.821-12.201,0.316c-3.488,4.188-1.476,9.396,1.7,12.079
	c3.264,2.761,10.104,2.584,13.518,2.474c3.41,0.111,10.253,0.288,13.519-2.474C48.688,12.432,50.707,7.225,47.221,3.036
	 M20.511,12.729c-1.807-1.544-3.664-4.846-1.328-7.678c2.391-2.759,5.964-1.472,7.777,0.053c1.958,1.661,2.896,6.343,3.356,9.377
	C27.249,14.539,22.461,14.371,20.511,12.729 M43.489,12.729c-1.948,1.642-6.726,1.81-9.812,1.753
	c0.467-3.035,1.416-7.716,3.369-9.377c1.824-1.525,5.394-2.812,7.785-0.053C47.159,7.883,45.307,11.185,43.489,12.729"/>
<path fill="#5C5A59" d="M26.77,19.486H8.852c-0.253,0-0.446,0.197-0.446,0.449v12.238c0,0.252,0.193,0.448,0.446,0.448H26.77V19.486
	z"/>
<path fill="#5C5A59" d="M55.156,19.486H37.239v13.135h17.917c0.239,0,0.447-0.196,0.447-0.448V19.935
	C55.604,19.683,55.396,19.486,55.156,19.486"/>
<path fill="#5C5A59" d="M11.391,34.867v28.378c0,0.24,0.202,0.448,0.449,0.448h15.889V34.697c0-0.102,0.01-0.197,0.022-0.288H11.839
	C11.592,34.409,11.391,34.614,11.391,34.867"/>
<path fill="#5C5A59" d="M52.172,34.409H36.254c0.011,0.091,0.026,0.187,0.026,0.288v28.996h15.892c0.242,0,0.442-0.208,0.442-0.448
	V34.867C52.614,34.61,52.414,34.409,52.172,34.409"/>
<polygon fill="#5C5A59" points="50.422,17.063 57.086,17.076 53.14,15.133 56.001,11.808 49.888,14.424 43.78,17.057 "/>
<polygon fill="#5C5A59" points="13.575,17.063 20.229,17.057 14.117,14.424 7.997,11.808 10.865,15.133 6.914,17.076 "/>
</svg>
