<?xml version="1.0" encoding="utf-8"?>
<!-- Generator: Adobe Illustrator 14.0.0, SVG Export Plug-In . SVG Version: 6.00 Build 43363)  -->
<!DOCTYPE svg PUBLIC "-//W3C//DTD SVG 1.1//EN" "http://www.w3.org/Graphics/SVG/1.1/DTD/svg11.dtd">
<svg version="1.1" id="Слой_1" xmlns="http://www.w3.org/2000/svg" xmlns:xlink="http://www.w3.org/1999/xlink" x="0px" y="0px"
	 width="64px" height="64px" viewBox="0 0 64 64" enable-background="new 0 0 64 64" xml:space="preserve">
<path fill-rule="evenodd" clip-rule="evenodd" fill="#58595B" d="M39.981,34.471l9.616-0.85L53,33.535l0.85,0.086
	c1.279,0.426,2.473,1.195,3.157,2.468c0.841,0.935,1.272,2.216,1.272,3.661l-0.259,1.698c-0.425,1.712-1.446,2.985-2.892,3.66
	c-1.531,0.857-3.063,1.022-4.769,0.432c-1.021-0.259-1.705-0.682-2.302-1.367l-8.935-7.4l0.599-1.28L39.981,34.471z M36.148,39.75
	l3.574,3.662l2.209,2.719l0.43,0.855c0.764,1.446,1.188,2.804,1.022,4.424c-0.174,1.531-0.685,2.639-1.698,3.063
	c-0.597,0.424-1.279,0.424-1.963,0.338c-1.619-0.425-2.891-1.696-3.833-3.74l-1.022-2.806l-1.272-7.407l1.445-0.511L36.148,39.75z
	 M29.595,40.858c0.166,2.89,0.424,5.954,0.856,9.278v3.402l-0.094,0.848c-0.597,1.531-1.611,2.813-3.143,3.496
	c-1.532,0.849-3.15,1.014-4.689,0.591c-1.691-0.419-2.971-1.446-3.654-2.799c-0.425-0.855-0.77-1.885-0.77-2.899l0.431-1.956
	c0.166-0.855,0.597-1.705,1.273-2.387l7.149-8.509C27.805,40.348,28.661,40.772,29.595,40.858 M27.64,28.515
	c1.021-0.935,2.38-1.532,3.997-1.532c1.534,0,2.979,0.597,3.921,1.532c1.188,1.187,1.698,2.467,1.698,3.999
	c0,1.533-0.511,2.979-1.698,4c-1.107,1.107-2.387,1.703-3.921,1.703c-1.617,0-2.976-0.596-3.997-1.703
	c-1.108-1.021-1.705-2.467-1.705-4C25.935,30.982,26.531,29.702,27.64,28.515 M49.339,20.431c1.532-0.683,2.979-0.855,4.511-0.683
	c1.452,0.166,2.473,0.849,2.977,1.87l0.346,1.107l-0.173,0.855c-0.59,1.525-1.87,2.72-3.999,3.655
	c-0.849,0.424-1.784,0.597-2.813,0.769l-10.465,1.273l-0.172-0.589l-0.166-0.259l0.338-0.425l8.596-7.149L49.339,20.431z
	 M14.7,20.344l2.294,0.936l7.494,5.444c-0.683,0.855-1.1,1.705-1.359,2.553l-12.256,1.54l-0.849-0.173
	c-1.532-0.259-2.553-0.942-3.244-2.215c-0.676-1.272-0.676-2.554-0.165-3.825c0.597-1.62,1.697-2.9,3.323-3.576
	C11.47,20.172,13.002,19.913,14.7,20.344 M19.295,10.383c0.086-1.525,0.683-2.553,1.698-3.15c0.511-0.425,1.28-0.425,1.963-0.08
	c1.532,0.424,2.806,1.532,3.834,3.661c0.424,0.849,0.842,1.698,1.014,2.719l1.705,10.047l-1.281,0.425l-7.574-8.256l-0.424-0.849
	C19.555,13.367,19.13,11.915,19.295,10.383 M45.686,8.686c0.416,0.849,0.677,1.87,0.677,2.977l-0.261,1.87
	c-0.338,0.936-0.755,1.791-1.272,2.554l-7.66,9.364c-0.77-0.597-1.611-1.021-2.467-1.452l-0.85-9.617l-0.093-3.402l0.093-0.849
	c0.426-1.696,1.612-2.977,3.145-3.826c1.532-0.855,3.236-1.028,4.854-0.431C43.636,6.304,44.916,7.233,45.686,8.686 M23.978,3.579
	c-1.87-0.425-3.409-0.259-5.021,0.597c-1.791,1.101-2.812,2.805-3.229,5.187c-0.431,2.466,0,4.854,1.267,7.235l0.604,0.849
	l-2.042-0.676c-2.553-0.597-4.941-0.252-7.322,1.021c-2.467,1.273-4,3.064-5.028,5.531c-0.934,2.388-0.841,4.682,0.345,6.811
	c0.511,0.935,1.28,1.698,1.956,2.208c1.022,1.021,2.294,1.619,3.827,1.871l0.605,0.173l-1.281,1.107
	c-1.194,1.021-1.877,2.302-2.302,3.574c-0.424,1.532-0.252,3.063,0.597,4.51c0.425,0.685,0.848,1.282,1.539,1.705
	c0.676,0.598,1.525,1.021,2.546,1.102c1.87,0.43,3.826,0.43,5.956-0.252l-1.532,2.552l-0.425,1.107
	c-0.849,2.728-0.597,5.107,0.683,7.574c0.597,0.937,1.274,1.792,1.957,2.554c1.021,0.935,2.295,1.531,3.827,1.957
	c2.554,0.684,5.114,0.596,7.581-0.677c2.38-1.28,3.913-3.323,4.675-5.877l0.093-0.51c1.612,1.792,3.145,2.977,4.85,3.41
	c1.697,0.503,3.401,0.416,4.934-0.598c1.444-0.856,2.466-2.303,2.978-4.093c0.431-1.87,0.431-3.741,0-5.87
	c0.855,0.598,1.705,1.021,2.726,1.273c2.719,0.855,5.107,0.771,7.487-0.511c2.303-1.273,3.834-3.315,4.597-5.955
	c0.684-2.554,0.519-5.021-0.763-7.401l-0.424-0.683c-0.684-1.022-1.359-2.043-2.389-2.726c-0.849-0.59-1.87-1.022-2.805-1.446
	c2.64-1.28,4.51-3.064,5.365-5.358c0.597-1.876,0.418-3.409-0.432-4.941v-0.172c-1.021-1.698-2.381-2.805-4.509-3.402
	c-1.28-0.252-2.72-0.252-3.999-0.166l-2.813,0.59l0.942-2.129c0.85-2.719,0.598-5.358-0.849-7.826L48.49,6.384
	c-1.273-2.129-3.144-3.409-5.703-4.085c-2.633-0.684-5.1-0.431-7.488,0.849c-2.38,1.273-4.085,3.237-4.847,5.791V9.11L30.365,9.7
	l-0.337-0.59l-0.856-1.539C27.805,5.449,26.1,4.175,23.978,3.579"/>
</svg>
