<?xml version="1.0" encoding="UTF-8" standalone="no"?>
<svg xmlns:rdf="http://www.w3.org/1999/02/22-rdf-syntax-ns#" style="image-rendering:optimizeQuality;text-rendering:geometricPrecision;shape-rendering:geometricPrecision" xmlns="http://www.w3.org/2000/svg" fill-rule="evenodd" xml:space="preserve" height="64" width="64" version="1.1" clip-rule="evenodd" xmlns:cc="http://creativecommons.org/ns#" xmlns:dc="http://purl.org/dc/elements/1.1/" viewBox="0 0 64 63.981756"><defs><style type="text/css"><![CDATA[
    .str0 {stroke:#2B2A29;stroke-width:5.90476}
    .str1 {stroke:#2B2A29;stroke-width:5.90476;stroke-linejoin:round}
    .str2 {stroke:#2B2A29;stroke-width:5.90476;stroke-linejoin:round}
    .str3 {stroke:#FEFEFE;stroke-width:29.5238;stroke-linejoin:round}
    .fil19 {fill:none}
    .fil18 {fill:#FEFEFE}
    .fil11 {fill:#FEFEFE}
    .fil12 {fill:#5B5B5B}
    .fil6 {fill:#2B2A29}
    .fil16 {fill:#FFF7B2}
    .fil13 {fill:#FFED00}
    .fil7 {fill:#FFED00}
    .fil1 {fill:#FEF7F1}
    .fil15 {fill:#FEF1E3}
    .fil3 {fill:#FECF3D}
    .fil8 {fill:#FECF3D}
    .fil5 {fill:#E73849}
    .fil4 {fill:#E73849}
    .fil14 {fill:#FBF07B}
    .fil17 {fill:#AF483B}
    .fil9 {fill:#B0CB1F}
    .fil24 {fill:#010101}
    .fil20 {fill:#0361AA}
    .fil22 {fill:#099146}
    .fil23 {fill:#0B7ABF}
    .fil25 {fill:#E32544}
    .fil21 {fill:#F8B51B}
    .fil2 {fill:#2B2A29;fill-rule:nonzero}
    .fil0 {fill:#E73849;fill-rule:nonzero}
    .fil10 {fill:#FEFEFE;fill-opacity:0.380392}
   ]]></style><clipPath id="id0"><path d="m1292 1923c49 0 89 40 89 89s-40 89-89 89-89-40-89-89 40-89 89-89z"/></clipPath></defs><g transform="matrix(.04260985 0 0 .04260985 -20.891433 -38.144936)"><path d="m796 961c0-9 2-18 5-26s8-15 14-21c5-6 12-10 20-14 9-3 18-5 27-5h11c3 0 6 1 8 1s4 0 5 1c2 0 3 1 5 1 1 1 2 2 2 6 1 3 2 7 2 12 0 4 1 10 1 16v18s0 1-1 1-3 0-5-1c-2 0-6-1-11-1s-9 1-12 2c-4 2-7 4-9 6-2 3-4 5-6 9-1 3-1 7-1 10 0 4 0 8 1 11l6 9c2 2 5 4 8 6 4 1 8 2 12 2h5c2-1 3-1 4-1s1-1 2-1h1c1 0 2 0 2 1 0 0 1 1 1 2v5c0 3-1 6-1 10 0 1-1 2-2 3-2 1-4 2-7 3-2 1-5 1-8 2h-11c-8 0-17-1-25-3-8-3-15-7-22-12-6-5-11-12-15-21-4-8-6-19-6-31zm162-28c0-5 1-11 3-15 2-5 4-9 8-13 4-3 8-6 13-8 6-1 12-2 18-2 7 0 14 1 19 2 5 2 10 5 14 8 3 3 6 7 8 11 2 5 3 9 3 14 0 6 0 12-1 16s-2 8-4 11c-1 3-3 5-5 7s-4 4-7 6c6 2 10 6 13 10 2 4 3 9 3 16 0 4-1 8-2 12-2 4-5 8-8 11-4 4-8 6-14 8-5 2-11 4-19 4-6 0-11-2-17-4-5-2-9-5-13-8-3-4-6-7-8-12-2-4-3-8-3-11 0-7 1-12 3-16s5-7 11-9c-5-4-8-9-11-15-2-6-4-14-4-23zm37 62c0 8 2 12 6 12 2 0 4-1 4-3 1-3 2-6 2-9 0-4-1-6-2-7 0-2-2-2-4-2-4 0-6 3-6 9zm0-36c0 4 1 7 2 10 1 2 3 4 5 4s3-2 4-4c1-3 1-6 1-10 0-3 0-6-1-7-1-2-2-3-4-3-3 0-4 1-5 3s-2 4-2 7zm113-9v-25c0-9 1-17 1-25 0-1 1-1 1-1 1-1 2-1 4-1 1-1 2-1 4-1h5 6c2 1 6 1 9 1 2 0 3 1 3 1 1 1 2 1 2 2 4 7 7 14 11 21s9 13 13 19c4-6 9-12 12-19 4-7 8-14 11-21 0-2 2-3 3-3 3 0 7-1 10-1h10 15c3 1 4 2 4 3 0 8 1 15 1 23v22c0 13 0 26-1 39 0 13 0 25-1 38 0 2 0 3-2 4h-5-16-10c-3 0-5 0-6-1h-5c-2-1-3-1-3-2v-3-18c0-5 0-9 1-14-3 7-5 13-8 19-2 6-5 12-8 17 0 1-1 1-1 1 0 1-1 1-1 1h-2-3-5l-2-2c-4-6-7-11-10-17-4-6-7-13-9-20v10c1 4 1 10 1 17 0 4-1 7-1 9 0 1-1 2-2 2s-3 1-5 1h-14c-3 0-4 0-5-1 0 0-1-1-1-3 0-11 0-23-1-35v-37zm133 73v-1s0-1 1-1c3-16 7-32 11-47 5-16 9-31 14-47 0 0 0-1 1-1 1-1 2-1 3-1h6c2-1 5-1 9-1 5 0 9 1 13 1h8c2 1 3 1 4 1l2 2c3 16 7 33 10 49s7 32 9 48c0 2-1 3-2 3h-17c-5 0-10 0-16-1 0 0-1 0-2-1 0 0 0-1-1-3v-3-4c-2 1-4 2-5 3-2 1-3 1-3 1-1 0-1 0-2-1-1 0-2-1-2-1l-1 4c0 1 0 2-1 2 0 1-1 2-2 2h-5c-2 1-5 1-9 1-5 0-9 0-12-1h-7c-1 0-2-1-3-1 0-1-1-1-1-2zm41-24c3-2 5-3 6-3 1-1 2-1 3-1s2 0 3 1c-1-4-1-7-2-11-1-3-2-7-4-12-1 4-2 8-3 13-1 4-2 8-3 13zm59-70c0-1 1-2 3-3s4-2 8-3c3-1 7-1 12-2h13c9 0 17 1 24 3 7 3 13 6 18 11s9 10 11 16c3 7 4 14 4 21s-1 13-3 18c-3 5-6 9-10 12s-9 6-15 8c-5 1-11 3-17 3v10c0 1 0 2-1 2-2 1-3 1-5 1-1 1-3 1-6 1h-6-8-5-4-3c0-1-1-3-2-7 0-4-1-9-2-15s-1-12-2-20c-1-7-2-14-2-21-1-7-1-13-2-19v-16zm48 65c4 0 7-2 9-4s4-5 4-8-2-5-4-7c-2-1-4-2-7-2h-1-1v21zm55-50v-9-9c0-1 1-2 1-3h2c4-1 8-1 13-1h13 25c8 1 16 1 24 1l3 3v9 10 22c0 1-1 1-1 2-1 1-1 1-2 1h-17c0 3 0 7-1 11 0 5 0 9-1 14 0 4-1 9-1 14-1 5-1 10-2 15 0 1-1 2-3 3h-9-10-7c-1-1-2-1-2-2-1 0-1-1-1-3-1-10-1-19-2-27 0-9-1-17-2-25-3-1-5-1-8-1h-9c-2 0-3-1-3-3v-11-11zm82 79v-1s0-1 1-1c3-16 7-32 11-47 5-16 9-31 14-47l1-1c1-1 2-1 3-1h6c2-1 5-1 9-1 5 0 9 1 13 1h8c2 1 3 1 4 1l2 2c3 16 7 33 10 49 4 16 7 32 9 48 0 2 0 3-2 3h-16c-6 0-11 0-17-1 0 0-1 0-2-1 0 0 0-1-1-3v-3-4c-2 1-3 2-5 3s-3 1-3 1c-1 0-1 0-2-1-1 0-2-1-2-1l-1 4c0 1 0 2-1 2 0 1 0 2-1 2h-5c-3 1-6 1-10 1-5 0-9 0-12-1h-7c-1 0-2-1-3-1 0-1-1-1-1-2zm41-24c3-2 5-3 6-3 1-1 2-1 3-1s2 0 3 1c0-4-1-7-2-11-1-3-2-7-3-12-2 4-3 8-4 13-1 4-2 8-3 13zm59-97c0-1 1-2 2-2 5 0 10 0 15-1h14 13c4 1 8 1 12 1 1 0 2 1 2 1-1 11-2 21-3 30 0 8-1 16-1 23-1 8-1 14-1 20v16c0 1-1 1-2 1-3 1-6 1-10 1h-12-11c-4 0-8 0-12-1-1 0-2 0-2-1v-24c-1-7-1-14-2-20 0-7-1-13-1-20s-1-15-1-24zm3 111c0-2 1-3 3-3 4-3 9-5 14-7 4-2 9-5 13-7 1-1 1-1 2-1 1-1 2-1 2-1 1 0 3 1 5 4 1 2 3 5 5 9 1 3 3 6 4 9s2 5 2 5c0 1-1 2-2 3-1 0-2 1-2 1-5 3-10 6-15 8s-10 4-16 6c-1 0-1 1-2 1s-2-1-3-4c-2-2-3-4-5-7-1-3-3-6-4-9s-1-6-1-7z" fill-rule="nonzero" class="fil0" fill="#e73849"/><path fill="#fef7f1" class="fil1" d="m1240 1819s0 31-8 36 52 26 52 26l50-12 43-10 5-3s-9-9-14-38c-4-30-128 1-128 1z"/><path d="m1243 1821c0 8-1 31-9 37-3 1 43 17 50 19l49-11 43-10 1-1c-3-5-9-16-12-37-3-24-105-1-122 3zm-12 31c6-4 6-33 6-33v-3h3c0-1 127-32 131 1 4 29 13 37 13 37l4 3-4 2-6 2v1h-1l-43 10-50 12-1-1s-66-22-52-31z" fill-rule="nonzero" class="fil2" fill="#2b2a29"/><path d="m1314 1360c132 0 228 52 227 220-1 137-86 256-246 257-94 0-168-57-184-108-15-51 17-108 21-125 21-93-3-183 72-219 33-16 70-25 110-25z" class="fil1 str0" stroke="#2b2a29" stroke-width="5.9047599" fill="#fef7f1"/><path stroke-linejoin="round" d="m1539 1371-98 29 67 314s15 82 9 128c-5 46-15 114-29 133-14 18-31 152-31 152l48-45 29 134s16-11 26-22c11-11 42-50 49-64s37-68 42-88c6-21 28-102 22-152 4 26 6 41 5 63 0 22-3 57-5 69s-9 55-11 68c11-10 28-40 34-59 27-81 47-226 37-309-3-23-13-71-27-111-43-123-78-163-167-240z" class="fil3 str1" stroke="#2b2a29" stroke-width="5.9047599" fill="#fecf3d"/><path fill="#fecf3d" class="fil3" d="m1402 1370c84 22 140 82 139 210-1 54-14 106-41 148-77-40-59-72-59-172 0-99-92-186-39-186z"/><path d="m1403 1367c43 11 78 32 103 66 25 35 39 82 38 147 0 27-4 54-11 80-7 25-17 49-30 70l-2 3-2-2c-66-34-65-62-62-128 0-14 1-29 1-47 0-48-22-93-38-126-10-20-17-37-17-48-1-9 5-15 19-15h1zm98 70c-24-33-58-53-99-64-10 0-13 4-13 9 0 10 7 26 17 45 16 34 38 80 38 129 0 17-1 33-1 47-2 62-3 90 56 121 12-20 22-42 28-66 7-25 11-51 11-78 0-64-13-110-37-143z" fill-rule="nonzero" class="fil2" fill="#2b2a29"/><ellipse rx="28" ry="15" class="fil4" cy="1687" cx="1368" fill="#e73849"/><ellipse rx="27" ry="14" class="fil4" cy="1684" cx="1145" fill="#e73849"/><path d="m1156 1544c-2 0-3-2-3-3 0-2 2-3 3-3s50 2 71 26c1 1 1 3-1 4-1 1-3 1-4 0-19-22-66-24-66-24z" fill-rule="nonzero" class="fil2" fill="#2b2a29"/><path d="m1307 1573c-1 1-3 1-4-1-1-1-1-3 1-4 0 0 51-35 91-25 2 1 3 3 3 4-1 2-3 3-4 2-38-10-87 24-87 24z" fill-rule="nonzero" class="fil2" fill="#2b2a29"/><path fill="#e73849" class="fil5" d="m1256 1793c-15 0-27-44-26-89 30 1 30 1 61 4-1 46-19 85-35 85z"/><path d="m1256 1796c-9 0-16-11-21-27s-8-36-8-57v-8c0-2 1-3 3-3 6 0 10 1 14 1 18 0 22 1 47 3 2 0 3 1 3 3 0 22-5 43-11 59-8 18-18 29-27 29zm-16-29c5 14 10 23 16 23 7 0 15-10 21-26 6-14 10-33 11-53-23-2-28-3-44-3l-11-1v5c0 20 3 40 7 55z" fill-rule="nonzero" class="fil2" fill="#2b2a29"/><path fill="#2b2a29" class="fil6" d="m1155 1628c0 3 4 18 7 20s76-36 79-42-69-44-72-44-12 16-11 19c2 3 40 17 41 22 0 4-44 22-44 25z"/><path fill="#ffed00" class="fil7" d="m1634 1113s5 45-32 70c20 11 43 34 48 59 3-16 9-54 34-70-20-9-46-25-50-59z"/><path d="m1637 1113c2 16 9 28 18 37s20 15 30 20c0 0 1 0 1 1 1 1 1 3-1 4-11 7-19 20-24 33-4 13-7 26-8 34 0 1-1 2-2 3-2 0-4-1-4-3-2-11-8-21-16-30-9-12-20-21-30-27-1 0-1 0-1-1-1-1-1-3 1-4 35-24 30-66 30-66 0-2 1-3 3-4 1 0 3 1 3 3zm-1 20c-2 15-9 35-28 49 10 7 20 15 28 26 5 6 10 14 13 21 2-7 4-15 7-23 4-13 11-25 22-33-9-5-19-10-27-19-6-6-11-13-15-21z" fill-rule="nonzero" class="fil2" fill="#2b2a29"/><path fill="#ffed00" class="fil7" d="m1550 1201s3 21-15 33c9 6 21 17 23 29 1-8 5-26 16-34-9-4-22-12-24-28z"/><path d="m1552 1215c-2 6-5 13-12 19 4 3 9 7 12 12 2 2 4 4 5 6 1-2 1-4 2-7 2-5 5-11 10-15-4-2-8-5-12-8-2-2-4-5-5-7zm-19 17c16-11 14-31 14-31 0-2 1-3 3-3 2-1 3 0 3 2 1 8 5 13 9 17 4 5 9 7 14 10 0 0 1 0 1 1 1 1 1 3-1 4-5 3-9 9-11 15s-3 13-4 17c0 1-1 2-2 2-2 1-4 0-4-2-1-5-4-10-7-15-4-5-10-9-15-12 0 0-1 0-1-1-1-1 0-3 1-4z" fill-rule="nonzero" class="fil2" fill="#2b2a29"/><path fill="#ffed00" class="fil7" d="m1680 1242s4 35-21 55c13 9 29 27 32 48 2-13 6-44 23-56-14-7-31-20-34-47z"/><path d="m1683 1241v1c2 12 7 22 12 29 6 7 14 12 20 15l1 1c1 1 1 3-1 4-7 6-12 16-15 26-4 11-5 21-6 28 0 1-1 2-2 3-2 0-4-1-4-3-1-9-5-17-10-24-6-9-14-17-21-21v-1c-1-1-1-3 0-4 24-19 20-53 20-53 0-2 1-3 3-3 2-1 3 1 3 2zm-1 20c-2 11-7 25-18 36 6 5 13 12 19 20 3 4 5 9 7 14 1-5 2-10 4-15 3-10 7-20 14-27-6-3-12-8-17-14-4-4-6-9-9-14z" fill-rule="nonzero" class="fil2" fill="#2b2a29"/><path fill="#ffed00" class="fil7" d="m1293 1365c-1-4 64 1 65-5 0-5 1-18 1-18 0-22 24-65 24-69 1-5-28 11-36 20 0 0-16-52-24-53-9 0-25 38-26 56-13-8-40-19-41-16s15 26 22 43c6 12 13 29 15 42z"/><path d="m1295 1361h3c6-1 15-1 24-1h33c0-5 1-18 1-18 0-18 14-47 21-62 0-1 1-3 2-4-1 1-2 1-3 1-9 4-22 12-27 18l-3 4-2-5s-15-50-21-51c-3 0-8 9-13 19-5 12-10 25-10 34v6l-5-3c-5-4-14-8-22-11-4-2-8-4-12-5-1 0-2-1-2-2 1 2 4 8 8 15 5 8 11 17 14 25 3 7 6 14 9 22 2 6 4 12 5 18zm4 6c-2 0-3-3-3-2l-6 1c-1-7-3-14-6-21-3-8-6-15-8-21-4-8-9-17-14-25-6-10-10-17-9-20v-1c2-2 5-2 10-1 3 1 8 3 13 5 6 3 13 6 18 9 2-9 6-21 10-31 6-13 13-23 19-23 8 1 21 37 25 50 7-5 18-12 25-15 3-1 5-2 7-2 2-1 5-1 6 1v3c0 1-2 4-4 9-6 14-20 43-20 59 0 0-1 13-1 19-1 5-21 5-39 5-9 0-18 0-23 1z" fill-rule="nonzero" class="fil2" fill="#2b2a29"/><path fill="#fecf3d" class="fil8" d="m1129 1598s-11-30-11-49c-1-19 3-59 3-59 0-38 89-142 118-139 5 0 15 6 25 14 8-1 19-4 41-5 26 0 0 0 44 1 10-8 21-14 25-14 12 0 66 54 73 65 14 24 29 72 21 101-6 23-33 69-56 78 7-38 4-99 2-139-5 37-29 85-54 100 3-14 7-54-8-111 1 41-17 100-42 110 0-11 6-42-16-95-38 32-37 102-36 111-10-3-51-55-13-120-18 9-69 76-67 108-12-23-11-89 15-112-25 30-36 36-64 155z"/><path d="m1126 1599c-1-3-11-32-12-50 0-19 4-57 4-60v-3c2-19 24-54 50-84 25-29 54-54 70-54h1c3 0 7 2 11 4 5 3 10 6 14 10 9-2 19-4 41-5h1l42 1c5-4 11-8 15-10 4-3 8-4 11-4 6 0 19 10 33 22 18 16 39 37 42 44 8 14 17 35 21 56 4 17 5 34 1 48-3 13-13 33-26 50-9 14-21 25-32 29-2 1-4 0-4-1v-2c3-19 4-43 4-68 0-16 0-32-1-47-4 13-9 26-16 38-10 18-22 34-34 41-2 1-4 1-5-1v-2c2-8 4-25 2-50-1-11-2-24-5-38-2 17-6 33-11 48-8 21-19 37-32 43-1 0-3 0-4-2v-1-6c1-13 3-41-15-84-32 32-32 96-31 106 0 2-2 3-3 3h-2s-1 0-1-1c-6-3-16-15-23-33-6-17-9-41 0-68 2-3 3-7 5-11-11 10-24 26-35 44-12 19-22 40-21 54 0 1-2 3-3 3s-3-1-3-2c-7-13-9-40-6-65 1-6 2-12 4-18-12 20-23 49-41 126-1 1-2 2-4 2-1 0-2-1-2-2zm-5-50c0 11 4 27 7 38 24-98 35-114 55-137 3-4 5-7 8-10 2-1 4-1 5 1 1 1 1 3 0 4-3 2-4 4-5 6l-3 2c-7 11-11 24-13 39-2 18-2 36 1 49 4-13 11-28 21-43 16-25 36-49 47-53 1-1 2-1 3 0s2 3 1 4c-4 7-8 14-10 21-9 25-6 48 0 64 5 13 11 23 16 28 1-21 4-79 37-109h1c2-1 4 0 4 1 20 47 18 77 18 91 9-6 17-20 23-36 8-21 12-47 12-68-1-2 0-3 2-3 1-1 3 0 4 2 6 23 9 43 10 60 2 20 1 35-1 45 10-8 19-20 27-35 10-18 17-40 20-58 0-2 1-3 3-3 1 0 3 1 3 3 1 20 2 45 2 70 0 23-1 45-3 63 8-5 17-14 25-25 11-16 21-35 24-48 4-12 3-29-1-45-4-21-12-41-20-54-3-6-23-27-41-43-13-11-25-20-29-20-2 0-4 1-8 3-4 3-10 6-16 10 0 1-1 1-1 1h-43c-22 0-32 2-40 4h-2-2c-5-4-10-8-15-10-4-3-7-4-8-4h-1c-14 0-41 24-66 52-24 29-46 62-47 81-1 1-1 2-1 2v1s-4 40-3 59zm185-192c1 0 2 2 3 3l-3-3zv0 0zm103 233c0-1 1-2 2-2l-2 2z" fill-rule="nonzero" class="fil2" fill="#2b2a29"/><path d="m1126 1599c-1-3-11-32-12-50 0-19 4-58 4-60v-2c2-21 25-56 50-86 26-29 55-54 70-53h1c13 1 58 40 58 41 1 1 1 3 0 4s-3 1-4 0c0 0-44-38-54-39h-1c-13-1-41 23-65 51-25 29-47 63-48 83-1 0-1 1-1 1v1s-4 40-3 59c0 11 4 27 7 38 24-98 35-114 55-137 3-4 5-7 8-10 2-1 4-1 5 1 1 1 1 3 0 4-3 2-4 4-5 6l-3 2c-7 11-11 24-13 39-2 18-2 36 1 49 4-13 11-28 21-43 16-25 36-49 47-53 1-1 2-1 3 0s2 3 1 4c-4 7-8 14-10 21-9 25-6 48 0 64 5 13 11 23 16 28 1-21 4-79 37-109h1c2-1 4 0 4 1 20 47 18 77 18 91 9-6 17-20 23-36 8-21 12-47 12-68-1-2 0-3 2-3 1-1 3 0 4 2 6 23 9 43 10 60 2 20 1 35-1 45 10-8 19-20 27-35 10-18 17-40 20-58 0-2 1-3 3-3 1 0 3 1 3 3 1 20 2 45 2 70 0 23-1 45-3 63 8-5 17-14 25-25 11-16 21-35 24-48 4-12 3-29-1-45-4-21-12-41-20-54-3-6-23-27-41-43-13-11-25-20-29-20s-14 6-25 14c-14 10-28 22-33 28-1 1-3 2-4 1-1-2-2-3-1-5 6-6 20-19 34-29 12-8 24-15 29-15 6 0 19 10 33 22 18 16 39 37 42 44 8 14 17 35 21 56 4 17 5 34 1 48-3 13-13 33-26 50-9 14-21 25-32 29-2 1-4 0-4-1v-2c3-19 4-43 4-68 0-16 0-32-1-47-4 13-9 26-16 38-10 18-22 34-34 41-2 1-4 1-5-1v-2c2-8 4-25 2-50-1-11-2-24-5-38-2 17-6 33-11 48-8 21-19 37-32 43-1 0-3 0-4-2v-1-6c1-13 3-41-15-84-32 32-32 96-31 106 0 2-2 3-3 3h-2s-1 0-1-1c-6-3-16-15-23-33-6-17-9-41 0-68 2-3 3-7 5-11-11 10-24 26-35 44-12 19-22 40-21 54 0 1-2 3-3 3s-3-1-3-2c-7-13-9-40-6-65 1-6 2-12 4-18-12 20-23 49-41 126-1 1-2 2-4 2-1 0-2-1-2-2zm283-9c0-1 1-2 2-2l-2 2z" fill-rule="nonzero" class="fil2" fill="#2b2a29"/><path stroke-linejoin="round" d="m856 1807-18 55 316 109s7 4 6 16c-2 12-7 142 8 176 16 35 258-3 258-3s3-116-9-181c12 16 68 80 68 80s12 15 5 32c-6 17-19 55-19 55l57 2 22-58s7-20-7-49c-13-29-161-185-161-185l-8-15s-45 22-76 20c-31-1-54-9-62-12-22 26-46 35-82 30-45-6-298-72-298-72z" class="fil9 str1" stroke="#2b2a29" stroke-width="5.9047599" fill="#b0cb1f"/><path stroke-linejoin="round" d="m1292 1961h31 30c-1 17-3 34-4 52-1 17-3 34-4 52-9 3-18 6-26 10-9 3-18 6-27 10-8-4-17-7-26-10-9-4-18-7-26-10-2-18-3-35-4-52-2-18-3-35-4-52h30 30z" class="fil3 str2" stroke="#2b2a29" stroke-width="5.9047599" fill="#fecf3d"/><g fill="#fefefe"><path d="m1293 1971h25 24c-1 15-2 29-3 43s-2 29-3 43c-7 2-14 5-21 7-7 3-15 5-22 8v-50-51z" fill-opacity=".38039198" class="fil10"/><path class="fil11" d="m1300 1981h31c-1 5-1 10-2 15h-18v14c6 0 12 0 18-1 0 7-1 14-1 20-1 7-1 14-1 21-9 2-17 5-26 8v-17c5-1 11-2 17-3v-14c-6 1-12 1-18 2v-22-23z"/><path class="fil11" d="m1267 1982h14v41c1 13 1 27 1 40-9-3-18-6-27-9v-16c4 1 9 2 14 3-1-10-1-20-1-30s0-19-1-29z"/></g><path fill="#5b5b5b" class="fil12" d="m1100 2131h409c10 0 18 8 18 18v227c0 10-8 18-18 18h-409c-9 0-17-8-17-18v-227c0-10 8-18 17-18z"/><path d="m1100 2128h409c6 0 11 3 15 6 4 4 6 9 6 15v227c0 6-2 11-6 15s-9 6-15 6h-409c-5 0-11-2-14-6-4-4-7-9-7-15v-227c0-6 3-11 7-15 3-3 9-6 14-6zm409 6h-409c-4 0-7 2-10 5-3 2-4 6-4 10v227c0 4 1 8 4 11 3 2 6 4 10 4h409c4 0 8-2 10-4 3-3 5-7 5-11v-227c0-4-2-8-5-10-2-3-6-5-10-5z" fill-rule="nonzero" class="fil2" fill="#2b2a29"/><path d="m1221 1861s43 18 80 17c37 0 80-23 80-23l3 5s-45 24-83 25c-38 0-82-19-83-19l3-5z" fill-rule="nonzero" class="fil2" fill="#2b2a29"/><path fill="#ffed00" class="fil13" d="m838 1860c1 10 0 21 0 28 0 8 21 8 4 16-17 9-8-2-16-5-9-3-16-15-20-29h7c5 0 19-6 25-10z"/><path d="m841 1859c1 9 0 19 0 26v3c0 1 2 3 5 4 2 1 4 3 5 4 2 4 0 7-8 11-10 5-13 4-15 1v-2c-1-2-1-3-3-4-5-2-9-6-13-11-4-6-7-13-9-20l-2-6 6 2h1 5c2 0 6-1 11-3 4-2 9-5 12-7l4-3 1 5zm-6 26v-20c-3 2-6 3-9 5-5 2-10 3-13 3h-3c2 5 4 10 7 14 3 5 7 8 10 10 5 1 6 4 6 7l1 1s1 0 7-3c3-2 4-3 4-3l-2-2c-4-2-8-4-8-9v-3z" fill-rule="nonzero" class="fil2" fill="#2b2a29"/><path fill="#fbf07b" class="fil14" d="m834 1691c14 17-10 28-10 69 0 5 1 10 1 17-4-2-8-3-12-3-8 0-16 3-23 9-1-9-1-17-1-23 0-41 31-86 45-69z"/><path d="m836 1690c9 10 5 18 0 30-3 9-8 21-8 40v8 9l1 4-5-1c-2-1-4-2-5-2-2 0-4-1-6-1-4 0-7 1-11 2-3 2-7 4-10 6l-4 4-1-6c0-5-1-9-1-13v-10c0-21 7-42 17-56 4-7 8-12 13-15 4-4 9-5 14-4 2 1 4 2 6 5zm-5 27c4-9 7-16 0-24-1-1-2-2-3-2-2-1-5 0-9 3-3 3-7 7-11 13-9 14-16 34-16 53v10c0 2 1 5 1 7 2-1 5-2 7-3 4-2 8-3 13-3 2 0 4 1 7 1h2v-4c0-3-1-6-1-8 0-20 6-33 10-43z" fill-rule="nonzero" class="fil2" fill="#2b2a29"/><ellipse rx="40" ry="48" class="fil15" cy="1822" cx="813" fill="#fef1e3"/><path d="m813 1771c12 0 22 6 30 15 8 10 13 22 13 36s-5 27-13 36c-8 10-18 15-30 15s-23-5-31-15c-7-9-12-22-12-36s5-26 12-36c8-9 19-15 31-15zm26 19c-7-8-16-13-26-13s-19 5-26 13c-7 9-11 20-11 32 0 13 4 24 11 32s16 13 26 13 19-5 26-13c6-8 10-19 10-32 0-12-4-23-10-32z" fill-rule="nonzero" class="fil2" fill="#2b2a29"/><path fill="#fff7b2" class="fil16" d="m770 1772c-10 10-22 30-23 54s13 34 22 42c3-14 1-32 4-48s10-26 19-45c4 28-2 63 23 84 16-14 12-71 12-85 1 1 9 16 12 39 3 21-2 44-5 53 15-14 29-57 25-72s-10-27-23-30c-14-2-11 4-12 4s-7-3-14-3c-2 0-8 4-17 4s-13-8-23 3z"/><path d="m772 1774c-5 5-11 14-15 24-4 9-6 18-7 28 0 12 3 20 7 25 3 5 6 8 10 11 1-5 1-11 1-18 0-8 1-16 2-25 3-13 8-22 14-35 2-3 3-6 5-10 1-1 2-2 3-2-3 0-5-1-7-1-4-2-7-3-13 3zm-21 22c5-11 11-21 17-27 8-8 13-6 19-4 2 0 4 1 7 1 4 0 9-2 11-3 2 0 3-1 5-1 4 0 9 1 12 2 1-2 4-5 14-3 8 2 13 6 17 12 4 5 7 13 9 20 2 8-1 24-6 39-5 14-12 29-19 36-1 1-2 2-4 1-1 0-2-2-2-4 2-5 4-15 5-26 1-8 1-17 0-25-1-9-3-16-4-22-1-1-1-3-2-4 1 23 1 62-13 73-1 1-2 1-3 0-21-16-22-40-23-63 0-4 0-9-1-12-7 13-11 22-14 35-1 7-2 16-2 24s0 16-2 23v1c-1 2-3 2-5 1-5-4-11-8-15-15-5-7-8-16-8-29 1-11 3-21 7-30zm42-24h1c0 1 1 2 1 3 1 7 2 15 2 22 1 21 2 43 18 58 11-13 9-53 9-72v-9c0-2 1-3 3-3 1 0 1 0 2 1 1 0 5 8 8 19 2 6 4 13 5 22s1 18 0 27c0 4-1 8-1 12 3-7 7-15 9-22 5-14 8-28 6-35s-4-14-8-19c-3-4-7-8-13-9-7-1-8 0-8 0 0 2 0 3-1 4h-1c-1 0-3 0-5-1-3-1-6-2-10-2 0 0-1 0-2 1-3 1-8 3-15 3zm31 11z" fill-rule="nonzero" class="fil2" fill="#2b2a29"/><path d="m878 1812s2 40-21 58l-4-5c20-16 19-53 19-53h6z" fill-rule="nonzero" class="fil2" fill="#2b2a29"/><path fill="#af483b" class="fil17" d="m1233 1707c-1 16 1 32 4 47 1-2 3-35 46-44-17-2-50-3-50-3z"/><g clip-path="url(#id0)"><polygon points="1681 1623 1681 2400 903 2400 903 1623" fill="#fefefe" class="fil18"/><path d="m796 961c0-9 2-18 5-26s8-15 14-21c5-6 13-10 21-14 8-3 17-5 26-5h11c3 0 6 1 8 1s4 0 6 1c1 0 3 1 4 1 1 1 2 2 2 6 1 3 2 7 2 12 1 4 1 10 1 16 1 6 1 12 0 18 1 1 0 1-1 1s-3 0-5-1c-2 0-6-1-11-1-4 0-8 1-12 2l-9 6c-2 3-4 5-5 9-2 3-2 7-2 10 0 4 0 8 2 11 1 3 3 6 5 9 2 2 5 4 8 6 4 1 8 2 12 2h5c2-1 3-1 4-1s2-1 2-1h1c1 0 2 0 2 1 1 0 1 1 1 2v5c0 3-1 6-1 10 0 1-1 2-2 3-2 1-4 2-7 3-2 1-5 1-8 2h-11c-8 0-16-1-25-3-8-3-15-7-21-12-7-5-12-12-16-21-4-8-6-19-6-31zm162-28c0-5 1-11 3-15 2-5 4-9 8-13 4-3 8-6 13-7 6-2 12-3 19-3 6 0 13 1 18 3 6 2 10 4 14 7 3 3 6 7 8 12 2 4 3 8 3 13 0 7 0 12-1 16s-2 8-4 11c-1 3-3 6-5 8s-4 3-7 5c6 2 10 6 13 10 2 4 4 9 3 16 0 4-1 8-2 12-2 5-5 8-8 12-4 3-8 6-14 7-5 3-11 4-18 4s-12-1-17-4c-6-2-10-5-14-8-3-4-6-7-8-11-2-5-3-9-3-12 0-7 1-12 3-16s5-7 11-9c-5-4-8-9-11-15-2-6-4-14-4-23zm37 62c1 8 3 12 7 12 1 0 3-1 4-3 0-3 1-6 1-9 0-4-1-6-1-7-1-1-3-2-4-2-4 0-6 3-7 9zm0-36c1 4 1 7 2 10s3 4 5 4 3-2 4-4c1-3 2-6 2-10 0-3-1-5-2-7s-2-3-4-3c-3 0-4 1-5 3s-1 4-2 7zm113-9v-25c0-8 1-17 1-25 0-1 1-1 2-1 1-1 1-1 3-1 1 0 3-1 4-1h5c2 0 4 0 6 1h9c2 1 3 1 4 1 0 1 1 1 2 3 3 6 7 13 11 20s8 13 12 20c4-7 9-13 12-20 5-7 8-14 11-21 1-2 2-2 4-3 3 0 6 0 9-1h10c7 0 12 0 15 1 3 0 4 1 4 2 0 8 1 15 1 23v22c0 13 0 26-1 39v38c-1 2-1 4-3 4-1 0-3 1-5 1-7-1-12-1-16-1-4 1-7 1-10 0-2 0-4 0-6-1h-5c-1 0-2-1-3-1v-4-18c0-5 0-9 1-14-3 7-5 13-7 20-3 5-6 11-9 17 0 0-1 0-1 1h-1-2c-1 1-2 1-3 1-2-1-4-1-5-1l-2-2c-3-5-7-11-10-17-4-6-6-13-9-20 0 3 0 6 1 10v17c0 5-1 7-1 9 0 1-1 2-1 2-1 1-3 1-6 1h-14-5c0-1-1-2-1-3 0-12 0-24-1-36v-37zm133 73v-1s0-1 1-1c3-16 7-32 11-47 5-15 9-31 14-46 0-1 1-2 1-2 1 0 2-1 3-1h6 9 13 8c2 1 3 1 4 2 1 0 2 1 2 1 3 17 7 33 10 49 4 16 7 32 10 49-1 1-1 3-3 2h-17c-5 0-10 0-16-1 0 0-1 0-2-1 0 0 0-1-1-2v-3-4c-2 1-4 1-5 2-2 1-3 1-3 1h-2c-1-1-2-1-2-2-1 2-1 2-1 4 0 1 0 2-1 2 0 1 0 2-1 2-2 0-3 1-6 1h-9-12c-3 0-5-1-7-1-1 0-2 0-3-1 0 0-1-1-1-2zm41-24c3-1 5-3 6-3s2-1 3-1 2 1 3 1c-1-4-1-7-2-10l-3-12c-2 3-3 8-4 12s-2 9-3 13zm59-69c0-2 1-3 3-4s5-2 8-2c3-2 7-2 12-2 4-1 9-1 13-1 9 0 17 1 24 4 7 2 13 6 18 10 5 5 9 10 12 17 2 6 3 13 3 20s-1 13-3 18c-3 5-6 9-10 13-4 3-9 5-14 7-6 2-12 3-18 3v10c0 1 0 2-1 3-1 0-3 1-5 1h-6-6-8-5-4-3c0-1-1-3-2-7 0-4-1-9-2-15 0-6-1-12-2-19s-1-14-2-22c-1-7-1-13-1-19-1-6-1-11-1-15zm48 65c4-1 7-3 9-5 3-1 4-4 4-8 0-3-1-5-3-6-3-2-5-3-8-2 0-1 0-1-1 0 0-1-1-1-1-1v22zm55-50v-10-9c0-1 1-2 1-2 1-1 2-1 2-1 4-1 8 0 13 0s9 0 13-1c8 0 16 0 25 1 8 0 16 0 24 1 1 0 2 1 3 2v10 9 22c0 1-1 2-1 2 0 1-1 1-2 2-9-1-9-1-17-1 0 4 0 7-1 11 0 5 0 10-1 14 0 5 0 10-1 14-1 6-1 11-2 15 0 2-1 3-3 3s-5 0-9 1c-4 0-7 0-10-1h-7c-1 0-2-1-2-1-1-1-1-2-1-4-1-10-1-19-2-27 0-9-1-17-2-25-2 0-5-1-8 0-3-1-6-1-9 0-2-1-2-1-3-3v-11-11zm83 79c-1-1 0-1-1-2 1 0 1 0 1-1 3-15 7-31 12-46 4-16 8-31 13-47 0-1 1-1 1-2 1 0 2 0 3-1h6 9 13c3 0 6 1 8 1s3 0 4 1c1 0 2 1 2 2 3 16 7 32 10 48 4 16 7 32 10 49 0 2-1 2-3 3-6-1-11-1-16 0-6-1-11-1-17-2 0 1-1 0-2-1 0 0 0-1-1-3v-3-3c-2 1-3 2-5 2-2 1-3 1-3 1h-2c-1 0-2-1-2-2 0 2 0 2-1 4v3c-1 1-1 1-2 1s-3 1-5 1h-10-12c-3 0-5 0-7-1-1 0-2 0-3-1v-1zm40-25c3-1 5-3 6-3s2 0 3-1c1 1 2 1 3 2 0-4-1-8-2-11-1-4-2-7-3-13-1 5-3 9-4 13s-2 8-3 13zm60-97c0-1 0-2 1-1 5-1 10-1 15-2h14c5 0 9 1 13 1s8 0 13 1c0-1 1 0 1 1-1 11-2 21-2 29-1 9-2 16-2 24 0 7-1 14-1 19v17l-1 1h-11c-4 0-8 0-12 1-4-1-7-1-11-1h-12c-1 0-2-1-2-2v-23c0-7-1-14-1-21-1-7-1-13-2-20v-24zm2 111c0-1 1-2 3-3 5-2 9-4 14-7 4-2 9-4 13-7 1 0 2 0 2-1 1-1 2-1 2 0 1 0 3 1 5 3 2 3 3 6 5 9 1 3 3 6 4 9s2 5 2 6l-2 2c-1 1-2 1-2 2-5 3-10 5-15 7-5 3-10 5-15 7h-2c-1 0-3-1-4-3-2-2-3-5-5-8-1-3-3-6-4-9s-1-6-1-7z" fill-rule="nonzero" class="fil0" fill="#e73849"/><path fill="#fef7f1" class="fil1" d="m1241 1819s0 31-9 36c-8 5 52 26 52 26l50-12c21-5 21-5 43-10 3-2 3-2 5-3 0 0-9-9-13-38-5-30-128 1-128 1z"/><path d="m1244 1821c-1 8-2 31-10 37-2 1 43 17 50 19 24-5 24-5 49-11 21-5 21-5 43-10 1-1 1-1 2-1-4-5-10-16-12-37-4-24-106-1-122 3zm-13 31c6-4 6-33 6-33v-3h3c0-1 127-32 132 1 3 29 12 37 12 37 2 1 2 1 4 3l-4 2c-3 1-3 1-6 2v1h-1c-21 5-21 5-43 10-25 6-25 6-49 12h-1c-1 0-1 0-1-1 0 0-66-22-52-31z" fill-rule="nonzero" class="fil2" fill="#2b2a29"/><path d="m1315 1360c131 0 228 52 226 220-1 137-86 256-246 257-94 0-168-57-184-108-15-50 17-108 21-125 21-93-3-184 72-219 33-16 70-25 111-25z" class="fil1 str0" stroke="#2b2a29" stroke-width="5.9047599" fill="#fef7f1"/><path stroke-linejoin="round" d="m1539 1371c-49 14-49 14-98 29 34 157 34 157 67 314 0 0 15 82 10 128-6 46-16 114-30 133-13 19-31 152-31 152 24-22 24-22 48-45 15 67 15 67 29 134 0 0 16-11 27-22 10-11 41-50 48-64 8-14 37-68 42-88 6-21 28-102 22-152 5 26 6 41 6 63-1 22-4 57-6 69s-9 55-11 68c11-10 28-40 35-59 26-81 46-226 36-309-2-23-13-71-27-111-43-123-78-163-167-240z" class="fil3 str1" stroke="#2b2a29" stroke-width="5.9047599" fill="#fecf3d"/><path fill="#fecf3d" class="fil3" d="m1402 1370c85 22 140 82 139 210-1 54-14 106-41 148-31-16-47-31-54-50-6-23-2-57-5-106v-16c0-99-92-186-39-186z"/><path d="m1403 1367c43 11 78 32 103 66 25 35 39 82 38 147 0 7 0 15-1 23 0 19-2 39-7 58-5 16-12 31-19 44-5 9-9 17-14 25l-2 2c-1 0-1 0-2-1-5-3-10-5-15-8-53-26-53-56-50-125 1-14 2-29 3-44v-9c-2-43-22-84-37-115-10-21-17-37-17-48 0-10 5-15 19-15h1zm98 70c-24-33-58-53-99-64-10 0-13 3-13 9 0 10 7 26 17 45 15 32 34 73 37 117 1 3 1 6 0 9 0 15-1 30-2 45-3 68-3 97 51 122 2 2 5 3 7 4 2-3 5-7 7-11 10-16 19-34 25-53 6-23 8-46 7-69v-11c0-64-13-110-37-143z" fill-rule="nonzero" class="fil2" fill="#2b2a29"/><path fill="#e73849" class="fil4" d="m1368 1701c16 0 28-6 28-14s-12-15-28-15-28 7-29 15c0 8 13 14 29 14z"/><path fill="#e73849" class="fil4" d="m1145 1698c15 0 27-6 27-14 0-7-12-14-27-14s-27 7-27 14c0 8 12 14 27 14z"/><path d="m1156 1544c-1 0-3-2-3-3 0-2 2-3 3-3s51 2 71 26c1 1 1 3-1 4-1 1-3 1-4 0-18-22-66-24-66-24z" fill-rule="nonzero" class="fil2" fill="#2b2a29"/><path d="m1307 1573c-1 1-3 1-4-1-1-1 0-3 1-4 0 0 51-35 91-25 2 1 3 3 3 4-1 2-2 3-4 2-37-10-87 24-87 24z" fill-rule="nonzero" class="fil2" fill="#2b2a29"/><path fill="#e73849" class="fil5" d="m1256 1793c-15 0-27-44-26-89 31 1 31 1 61 4-1 46-19 85-35 85z"/><path d="m1256 1796c-9 0-16-11-21-27s-8-36-8-57v-8c0-2 2-3 3-3 6 0 10 1 14 1 18 0 22 1 47 3 2 0 3 1 3 3 0 22-5 43-11 59-8 18-17 29-27 29zm-16-29c5 14 10 23 16 23 7 0 15-10 21-26 6-14 10-33 11-53-23-2-27-3-44-3-5 0-5 0-11-1v5c0 20 3 40 7 55z" fill-rule="nonzero" class="fil2" fill="#2b2a29"/><path fill="#2b2a29" class="fil6" d="m1155 1628c0 2 4 18 7 20 4 2 76-36 79-42s-69-44-72-44-12 16-11 19c2 3 41 17 41 22 0 4-43 22-44 25z"/><path fill="#ffed00" class="fil7" d="m1634 1113s5 45-32 70c20 11 43 34 48 59 3-17 9-54 34-70-20-9-45-25-50-59z"/><path d="m1637 1113c2 16 9 28 18 37s20 15 30 20c0 0 1 0 1 1 1 1 1 3-1 4-11 7-19 20-23 33-5 13-8 26-9 34 0 1-1 2-2 3-2 0-4-1-4-3-2-11-8-21-16-30-9-12-20-21-30-27-1 0-1 0-1-1-1-1-1-3 1-4 35-24 30-66 30-66 0-2 1-3 3-4 2 0 3 1 3 3zm-1 20c-2 15-9 35-28 49 10 7 20 15 28 26 5 6 10 13 13 21 2-7 4-15 7-23 4-13 11-25 22-33-9-5-19-10-27-19-6-6-11-13-15-21z" fill-rule="nonzero" class="fil2" fill="#2b2a29"/><path fill="#ffed00" class="fil7" d="m1550 1201s3 21-15 33c9 6 21 17 23 29 1-8 5-26 16-34-9-4-22-12-24-28z"/><path d="m1552 1215c-2 6-5 13-12 19 4 3 9 7 13 12 1 2 3 4 4 6 1-2 2-4 2-7 3-5 5-11 10-15-4-2-8-5-11-8-2-2-4-5-6-7zm-19 17c16-11 14-31 14-31 0-2 1-3 3-4 2 0 3 1 4 3 0 8 4 13 8 17 4 5 9 7 14 10 0 0 1 0 1 1 1 1 1 3-1 4-5 3-9 9-11 15s-3 13-4 17c0 1-1 2-2 2-2 1-4-1-4-2-1-5-4-10-7-15-4-5-10-9-15-12 0 0 0-1-1-1-1-1 0-3 1-4z" fill-rule="nonzero" class="fil2" fill="#2b2a29"/><path fill="#ffed00" class="fil7" d="m1681 1242s3 35-22 55c13 9 29 27 32 48 2-13 6-44 23-56-14-7-31-20-33-47z"/><path d="m1684 1241c1 13 6 23 11 30 6 7 14 12 20 15 1 0 1 1 1 1 1 1 1 3 0 4-8 6-13 16-16 26-3 11-5 21-6 28 0 1-1 2-2 3-2 0-4-1-4-3-1-9-5-17-10-25-6-8-14-16-20-20l-1-1c-1-1-1-3 0-4 24-19 21-53 21-53-1-2 1-3 2-3 2-1 3 1 4 2zm-2 20c-2 11-7 25-18 36 7 5 13 12 19 20 3 4 5 9 7 14 1-5 2-10 4-15 3-10 7-20 14-27-6-3-12-8-17-14-3-4-6-9-9-14z" fill-rule="nonzero" class="fil2" fill="#2b2a29"/><path fill="#ffed00" class="fil7" d="m1293 1365c0-4 64 1 65-5 0-5 1-18 1-18 0-22 24-65 24-69 1-5-28 11-36 20 0 0-16-52-24-53-8 0-25 38-26 56-13-8-40-19-41-16s15 26 22 43c6 12 13 29 15 42z"/><path d="m1295 1361h3c6-1 15-1 24-1h33c0-5 1-18 1-18 0-18 14-47 21-62 1-1 1-3 2-4-1 1-2 1-3 1-9 4-22 12-26 18l-4 4c-1-2-1-2-2-5 0 0-15-50-21-51-3 0-8 9-13 19-5 12-10 25-10 34v6c-2-2-2-2-5-3-5-4-14-8-21-11-5-2-9-4-13-5-1 0-1-1-2-2 1 2 4 8 8 15 5 8 11 17 14 25 3 7 6 14 9 22 2 6 4 12 5 18zm4 6c-2 0-3-3-3-2-3 0-3 0-6 1-1-7-3-14-6-21-3-8-6-15-8-21-4-8-9-17-14-25-6-10-10-18-9-20v-1h1c1-2 4-2 9-1 3 1 8 3 13 5 6 3 13 6 18 9 2-9 6-21 10-31 6-13 14-23 19-23 9 1 21 37 26 50 6-5 17-12 25-15 2-1 4-2 6-2 3-1 5-1 6 1 0 1 1 2 0 3 0 1-1 4-4 9-6 14-20 43-20 59 0 0-1 13-1 19-1 5-21 5-39 5-9 0-18 0-23 1z" fill-rule="nonzero" class="fil2" fill="#2b2a29"/><path fill="#fecf3d" class="fil8" d="m1129 1598s-11-31-11-49c0-19 4-60 4-60-1-37 89-141 117-138 5 0 15 6 25 14 9-1 19-4 42-4 25-1 0 0 43 0 11-8 21-14 25-14 13 0 67 54 73 65 14 24 29 72 21 101-6 24-33 69-56 78 7-38 4-99 2-139-5 37-29 85-54 100 3-14 7-54-8-111 1 41-17 100-42 110 0-11 6-42-16-95-38 32-37 102-36 111-10-3-51-54-12-120-19 9-69 76-68 108-12-23-11-89 16-112-26 30-37 36-65 155z"/><path d="m1126 1599c-1-3-11-32-11-50-1-19 3-57 4-60-1-1 0-2-1-3 3-20 24-54 50-84 25-29 54-54 70-54h1c3 0 7 2 12 4 4 3 9 6 14 10 9-2 18-4 41-5v1h42c5-4 11-8 15-10 5-3 8-4 11-4 6 0 19 10 33 22 19 16 39 37 43 44 8 14 16 35 20 56 4 17 5 34 1 48-3 13-13 33-25 50-10 14-22 25-33 29-2 1-3 0-4-1v-2c3-19 4-43 4-68 0-16 0-32-1-47-4 13-9 26-15 38-10 19-23 34-35 41-2 1-4 1-4-1-1 0-1-1-1-2 2-8 4-25 2-50-1-11-2-24-5-37-2 16-6 32-11 47-8 21-19 37-32 43-1 0-3 0-4-2v-1c0-2 0-4 1-6 0-13 2-41-15-84-33 32-32 96-32 106 0 2-2 3-3 4-1 0-1-1-1-1-1 0-1 0-2-1-6-3-16-15-23-33-6-17-9-41 0-68 2-3 3-7 5-11-11 10-24 26-35 44-12 19-22 40-21 54 0 1-1 3-3 3-1 0-2-1-3-2-6-13-9-40-6-65 1-6 3-12 4-18-12 20-23 49-41 126 0 1-2 2-4 2-1 0-2-1-2-2zm-5-50c0 11 4 27 8 38 23-98 35-114 55-137 2-4 5-7 8-10 1-1 3-1 4 1 1 1 1 3 0 4-2 2-4 4-5 6l-2 2c-7 11-12 24-14 39-2 18-1 36 2 49 3-13 11-28 20-43 16-25 37-49 47-53 1-1 2-1 3 0 2 1 2 3 1 4-4 7-7 14-10 21-9 26-6 48 0 64 5 13 12 23 17 28 0-20 3-79 37-109h1c1-1 3 0 4 1 19 47 18 77 17 92 9-7 17-20 23-37 8-21 12-47 12-68-1-2 1-3 2-3 2-1 3 0 4 2 6 23 9 43 10 61 2 19 1 34 0 44 9-8 18-20 26-35 10-18 18-39 20-58 0-2 1-3 3-3s3 1 3 3c1 20 3 45 3 70 0 23-1 45-4 63 8-4 17-14 25-25 12-16 21-35 24-48 4-12 3-29-1-45-4-20-12-41-20-54-3-6-23-26-41-43-13-11-25-20-29-20-2 0-4 1-8 3-4 3-10 6-15 10-1 1-2 1-2 1h-43c-22 0-32 2-40 4h-1c-1 1-2 0-3 0-5-4-10-8-15-10-3-3-6-4-8-4h-1c-13 0-41 24-66 52-24 29-45 62-47 81v2 1c-1 0-4 40-4 59zm185-191c2 0 3 1 3 2zm-3-3v1zm103 232c0-1 1-2 2-2z" fill-rule="nonzero" class="fil2" fill="#2b2a29"/><path d="m1126 1599c-1-3-11-32-11-50-1-19 3-58 4-60-1 0 0-1 0-2 1-21 24-56 49-86 26-29 55-54 71-53h1c13 1 57 40 57 41 2 1 2 3 0 4-1 1-3 1-4 0 0 0-44-38-54-39-14-1-42 23-66 51-25 29-47 63-48 83v1 1c-1 0-4 40-4 59 0 11 4 27 8 38 23-98 35-114 55-137 2-4 5-7 8-10 1-1 3-1 4 1 1 1 1 3 0 4-2 2-4 4-5 6l-2 2c-7 11-12 24-14 39-2 18-1 36 2 49 3-13 11-28 20-43 16-25 37-49 47-53 1-1 2-1 3 0 2 1 2 3 1 4-4 7-7 14-10 21-9 26-6 48 0 64 5 13 12 23 17 28 0-20 3-79 37-109h1c1-1 3 0 4 1 19 47 18 77 17 92 9-7 17-20 23-37 8-21 12-47 12-68-1-2 1-3 2-3 2-1 3 0 4 2 6 23 9 43 10 61 2 19 1 34 0 44 9-8 18-20 26-35 10-18 18-39 20-58 0-2 1-3 3-3s3 1 3 3c1 20 3 45 3 70 0 23-1 45-4 63 8-4 17-14 25-25 12-16 21-35 24-48 4-12 3-29-1-45-4-20-12-41-20-54-3-6-23-26-41-43-13-11-25-20-29-20s-14 6-25 14c-14 10-28 22-33 28-1 2-3 2-4 1s-1-3 0-5c5-6 19-19 34-29 12-8 23-15 28-15 6 0 19 10 33 22 19 16 39 37 43 44 8 14 16 35 20 56 4 17 5 34 1 48-3 13-13 33-25 50-10 14-22 25-33 29-2 1-3 0-4-1v-2c3-19 4-43 4-68 0-16 0-32-1-47-4 13-9 26-15 38-10 19-23 34-35 41-2 1-4 1-4-1-1 0-1-1-1-2 2-8 4-25 2-50-1-11-2-24-5-37-2 16-6 32-11 47-8 21-19 37-32 43-1 0-3 0-4-2v-1c0-2 0-4 1-6 0-13 2-41-15-84-33 32-32 96-32 106 0 2-2 3-3 4-1 0-1-1-1-1-1 0-1 0-2-1-6-3-16-15-23-33-6-17-9-41 0-68 2-3 3-7 5-11-11 10-24 26-35 44-12 19-22 40-21 54 0 1-1 3-3 3-1 0-2-1-3-2-6-13-9-40-6-65 1-6 3-12 4-18-12 20-23 49-41 126 0 1-2 2-4 2-1 0-2-1-2-2zm283-9c0-1 1-2 2-2z" fill-rule="nonzero" class="fil2" fill="#2b2a29"/><path stroke-linejoin="round" d="m856 1807c-9 27-9 27-18 55 158 54 158 54 316 109 0 0 7 4 6 16-2 12-7 142 8 176 16 35 258-3 258-3s3-116-9-181c12 16 68 80 68 80s12 15 5 32c-6 17-19 55-19 55 29 1 29 1 57 2l22-58s7-20-7-49c-13-28-161-185-161-185-4-7-4-7-8-15 0 0-45 22-76 21-31-2-54-10-61-13-23 26-47 35-83 30-44-5-298-72-298-72z" class="fil9 str1" stroke="#2b2a29" stroke-width="5.9047599" fill="#b0cb1f"/><path stroke-linejoin="round" d="m1292 1955c12 0 23 1 34 1 10 1 20 2 29 3 1 17 0 35 0 54-2 19-5 37-8 54-8 4-17 8-26 12-10 3-19 6-29 9-9-3-18-6-28-9-9-4-18-8-27-12-3-17-5-35-7-54-1-19-1-37 0-54 9-1 19-2 29-3 11 0 22-1 33-1z" class="fil3 str2" stroke="#2b2a29" stroke-width="5.9047599" fill="#fecf3d"/><g fill="#fefefe"><path d="m1293 1966c10 0 19 0 28 1 8 0 17 1 25 1 0 15 0 30-1 46s-3 32-5 46c-8 3-15 6-23 9s-16 6-24 8v-54-57z" fill-opacity=".38039198" class="fil10"/><path class="fil11" d="m1301 1977c12 0 23 0 34 1 0 5 0 11-1 16h-19v16c6 0 13-1 19-1 0 8-1 15-1 23-1 7-2 14-2 22-10 3-19 6-29 9v-18c7-1 13-2 19-4 0-5 1-10 1-15-7 1-13 1-20 2v-26c0-13 0-25-1-25z"/><path class="fil11" d="m1264 1978c5 0 10 0 16-1v47c0 16 0 31 1 45-10-4-20-7-30-11 0-5-1-11-1-17 5 1 10 2 15 4 0-11 0-23-1-34v-33z"/></g><path fill="#5b5b5b" class="fil12" d="m1101 2131h408c10 0 18 9 18 18v227c0 10-8 18-18 18h-263c-70-1-70-1-151-1-10 1-17-8-16-18 1-17 1-17 4-33v-193c0-10 8-18 18-18z"/><path d="m1101 2128h408c6 1 11 3 15 7 4 3 6 9 6 14v227c0 6-2 11-6 15s-9 6-15 6h-263-151c-6 0-11-2-14-6s-5-10-5-16c1-16 1-16 4-32 0-97 0-97-1-194 1-6 3-11 7-15 4-3 9-6 15-6zm408 6c-204 1-204 1-409 0-3 0-7 2-10 5-3 2-4 6-4 10v186c-3 19-3 19-5 40 0 4 1 8 4 11 2 3 6 4 10 4 81 0 81 0 151 1h263c4 0 8-2 10-4 3-3 5-7 5-11v-227c0-4-2-7-5-10-2-3-6-4-10-5z" fill-rule="nonzero" class="fil2" fill="#2b2a29"/><path d="m1221 1861s44 18 80 17c37 0 80-23 80-23 1 2 1 2 3 5 0 0-45 24-83 25-38 0-82-19-82-19 1-3 1-3 2-5z" fill-rule="nonzero" class="fil2" fill="#2b2a29"/><path fill="#ffed00" class="fil13" d="m838 1859c1 11 0 21 0 29s21 8 4 16c-17 9-8-2-16-5-9-3-16-16-20-30 2 1 2 1 7 1s19-6 25-11z"/><path d="m841 1859c1 9 0 19 0 26v3c0 1 3 3 5 4s4 3 5 4c2 4 0 7-8 11-10 5-13 4-14 1-1-1-1-2-1-3-1-1-1-2-3-3-5-2-9-6-13-11-4-6-7-13-8-20-2-3-2-3-3-6 3 1 3 1 6 2h1 5c2 0 6-1 11-3 4-2 9-5 12-7 2-2 2-2 4-3 1 3 1 3 1 5zm-6 26c0-6 1-13 0-20-3 2-6 3-9 5-5 2-10 3-13 3h-2c1 5 3 10 6 14 3 5 7 8 11 10 4 1 5 4 6 7v1s1 0 7-3c3-2 4-3 4-3l-2-2c-4-2-8-4-8-9v-3z" fill-rule="nonzero" class="fil2" fill="#2b2a29"/><path fill="#fbf07b" class="fil14" d="m834 1691c14 17-9 28-9 69v17c-4-2-8-3-12-3-8 0-16 3-22 8-2-8-2-16-2-22 0-41 31-86 45-69z"/><path d="m836 1690c9 10 5 18 1 30-4 9-9 21-9 40v8 9c1 2 1 2 1 4-2-1-2-1-5-1-2-1-3-2-5-2s-4-1-6-1c-4 0-7 1-11 2-3 2-7 4-9 6-3 2-3 2-5 4v-6c-1-5-1-9-2-13v-10c0-21 7-42 17-56 4-7 8-12 13-15 4-4 9-5 14-4 2 1 4 2 6 5zm-5 27c4-9 7-16 1-24-1-1-3-2-4-2-2-1-5 0-9 3-3 3-7 7-11 13-9 13-16 34-16 53v10c1 2 1 4 1 7 2-1 5-2 7-3 4-2 9-3 13-3 2 0 5 0 7 1h2v-4c0-3-1-6 0-8-1-20 5-33 9-43z" fill-rule="nonzero" class="fil2" fill="#2b2a29"/><path fill="#fef1e3" class="fil15" d="m813 1870c22 0 40-21 40-48 0-26-18-48-40-48s-40 22-40 48c0 27 18 48 40 48z"/><path d="m813 1771c12 0 23 6 30 15 8 10 13 22 13 36s-5 27-13 36c-7 10-18 15-30 15s-23-5-30-15c-8-9-13-22-13-36s5-26 13-36c7-9 18-15 30-15zm26 19c-7-8-16-13-26-13s-19 5-26 13-11 20-11 32c0 13 4 24 11 32s16 13 26 13 19-5 26-13c6-8 11-19 11-32 0-12-5-23-11-32z" fill-rule="nonzero" class="fil2" fill="#2b2a29"/><path fill="#fff7b2" class="fil16" d="m770 1771c-9 11-22 31-23 55s13 34 22 42c3-14 1-32 4-48s10-26 19-45c5 28-2 63 24 84 15-14 11-71 11-85 1 1 10 16 12 39 3 21-2 44-5 53 15-14 29-57 25-72s-10-27-23-30c-14-2-11 4-12 4s-7-3-14-3c-2 0-8 4-16 4-10 0-14-8-24 2z"/><path d="m772 1774c-5 5-11 14-15 24-4 9-6 18-7 28 0 12 3 19 7 25 3 5 7 8 10 11 1-5 1-11 1-18 1-8 1-16 2-25 3-13 8-22 15-35 1-3 3-6 5-10 0-1 1-2 2-2-3 0-5-1-7-1-4-2-7-3-13 3zm-21 22c5-11 11-21 17-27 8-8 13-6 19-4 2 0 4 1 7 1 5 0 9-2 12-3 1 0 3-1 4-1 4 0 9 1 12 2 1-2 5-5 14-3 8 2 13 6 17 12s7 13 9 20c2 8-1 24-6 39-5 14-12 29-19 36-1 1-2 2-4 1-1 0-2-2-1-4 1-5 3-15 4-26 1-8 1-17 0-25-1-9-2-16-4-22-1-1-1-3-2-4 1 23 1 62-12 73-1 1-3 1-4 0-21-16-22-40-23-63 0-5 0-9-1-12-7 13-11 22-14 35-1 7-1 16-2 24 0 8 0 16-2 23v1c-1 2-3 2-5 1-5-4-11-8-15-15-5-7-8-16-8-29 1-11 3-21 7-30zm42-24h1c1 1 1 2 1 3 1 7 2 14 2 22 1 21 2 43 18 58 11-13 10-53 9-72v-9c0-2 1-3 3-3 1 0 2 0 2 1 1 0 5 8 9 19 1 6 3 13 4 22s1 18 0 27c0 4-1 8-1 12 3-7 7-14 9-22 5-14 8-28 6-35s-4-14-8-19c-3-4-7-8-13-9-7-1-7 0-7 0h-1c1 2 0 3-1 4h-1c-1 0-3 0-5-1s-6-2-10-2c0 0-1 0-2 1-3 1-8 3-14 3h-1zm31 11z" fill-rule="nonzero" class="fil2" fill="#2b2a29"/><path d="m878 1812s2 40-21 58c-2-2-2-2-4-5 21-16 19-53 19-53h6z" fill-rule="nonzero" class="fil2" fill="#2b2a29"/><path fill="#af483b" class="fil17" d="m1233 1707c0 16 1 32 4 47 1-2 3-35 46-44-17-2-50-3-50-3z"/></g><path fill="none" class="fil19" d="m1292 1923c49 0 89 40 89 89s-40 89-89 89-89-40-89-89 40-89 89-89z"/><path fill="#2b2a29" class="fil6" d="m1398 1635c0 3-5 19-9 21-3 2-90-38-94-45-3-6 83-47 86-46 4 0 15 16 13 19s-48 19-48 24 52 24 52 27z"/><path stroke-linejoin="round" d="m1290 2260c0 1 0 1 1 1h8c1 0 1 0 1-1v-16h4v17h9c1 0 1 0 1-1v-18c0-4-3-8-8-8h-6v-8h-10v34zm63 15c4 0 4 5 6 6-4 0-5-5-6-6zm6 6h1c0-3-3-6-7-7v-1c0-3 3-5 5-6 3-1 6 0 8 2 3 2 4 8-2 12l-1 2c6-1 10-10 4-16-6-5-15-1-15 6h1-3v2h2 1-1c0 4 3 7 6 8h1-1c0 8-12 10-14 2-1-1-1-3 0-4v2c2 0 4-3 5-4 1-2 2-4 1-7-3-12-20-8-18 3 0 5 4 8 9 8v-1c-6 0-9-5-8-10 3-9 15-7 15 2v1-1c-5 0-10 10-3 15 7 6 15 0 15-5l-1-1h2c1 0 2 8 9 9 5 0 10-4 10-9 12 0 13-15 4-18-5-1-10 1-12 5v3c1 0 0 0 0 0h-2v2c4 0 7 2 8 4 0 2 0 2 2 2 0-4-3-6-7-7v-1c1 0 0-2 2-4 7-7 18 2 12 10-3 3-8 4-11 1-2-2-2-2-3-4l-1-1c0 5 3 7 7 8h-1c0 3-1 5-4 6-1 1-2 1-4 1s-3-1-4-2c-1 0-2-1-2-2-1-3-1-6 1-8 1-1 2-2 3-2v-2c-2 1-3 1-4 3-2 2-2 4-3 5 0-1 0 0-1 0l-1-1zm-15 0c0-2 0-3 1-4s2-1 3-2c0 3-2 6-4 6zm-13-21c0 1 1 1 1 1h9c1 0 1 0 1-1v-9h-11v9zm-13 0c0 1 0 1 1 1h9v-27h-10v26zm-28 32h10v-27h-10v27zm56-50v18 1h9s1 0 1-1v-16c4 0 6 0 6-1v-9h-9c-4 0-7 3-7 8zm-77 0v11c0 3 1 5 3 7 3 2 9 1 13 1 1 0 1 0 1-1v-9h-7v-7c4 0 7 0 7-1v-9h-10c-4 0-7 3-7 8zm-29 32h7c-3 4-10 9-7 15 1 1 3 3 5 3h13v-10h-6l3-4 1-1c5-5 3-12-4-12h-12v9zm-14-23h-7v9c0 1 1 1 1 1 8 0 18 2 18-6 0-3-2-5-4-7l-2-3-1-1h6v-10h-12c-5 0-7 4-6 9 1 3 6 6 7 8zm140 2c0 8 7 8 13 8 3 0 6 0 8-1 1-1 3-4 3-6v-20h-10v17h-4v-17h-10v19zm-105 20v11c0 4 4 8 8 8h9c5 0 8-4 8-8v-11c0-5-3-8-8-8h-9c-4 0-8 3-8 8zm-20-31v10c0 9 7 9 13 9 13 0 11-7 11-20 0-3-3-7-7-7h-10c-4 0-7 3-7 8zm63 42c0 4 3 8 7 8h7v8h10v-35h-10v17h-4v-17h-10v19z" class="fil11 str3" stroke="#fefefe" stroke-width="29.5238" fill="#fefefe"/><g fill="#0361aa"><path class="fil20" d="m1356 2233c-6 0-9 3-9 9v19h11v-18h8v-10h-10z"/><rect class="fil20" height="10.3127" width="10.7813" y="2251" x="1332"/><path class="fil20" d="m1384 2233v18h-4v-18h-10v19c0 6 3 9 9 9h7c6 0 9-3 9-9v-19h-11z"/></g><path fill="#0361aa" class="fil20" d="m1252 2233h-8c-6 0-10 3-10 9v10c0 6 4 9 10 9h8c5 0 9-3 9-9v-10c0-6-4-9-9-9zm-2 19h-5v-10h5v10z"/><g fill="#0361aa"><path class="fil20" d="m1284 2242h-9v10h9v9h-10c-6 0-10-3-10-9v-10c0-6 4-9 10-9h10v9z"/><path class="fil20" d="m1298 2233h6c6 0 9 3 9 9v19h-10v-19h-5v19h-11v-37h11v9z"/><rect class="fil20" height="28.503799" width="10.7694" y="2233" x="1318"/><path class="fil20" d="m1229 2248-6-6h8v-9h-11c-6 0-9 3-9 7 0 2 1 4 3 6l6 6h-8v9h11c6 0 8-3 8-7 0-2 0-4-2-6z"/><path class="fil20" d="m1318 2294h-6c-6 0-9-3-9-9v-20h10v19h5v-19h10v37h-10v-8z"/><rect class="fil20" height="28.499201" width="10.7784" y="2265" x="1287"/></g><path fill="#0361aa" class="fil20" d="m1284 2285v-11c0-5-4-9-10-9h-8c-5 0-9 4-9 9v11c0 6 4 9 9 9h8c6 0 10-3 10-9zm-11-1h-5v-9h5v9z"/><path fill="#0361aa" class="fil20" d="m1252 2279-7 6h9v9h-12c-5 0-8-4-8-8 0-2 1-4 3-6l6-6h-9v-9h12c5 0 8 4 8 8 0 2-1 4-2 6z"/><path fill="#f8b51b" class="fil21" d="m1363 2284c0 5-5 10-10 10-6 0-10-5-10-10s4-10 10-10c5 0 10 5 10 10zm-10-8c-5 0-8 4-8 8 0 5 3 8 8 8s8-3 8-8c0-4-3-8-8-8z"/><path fill="#099146" class="fil22" d="m1384 2284c0 5-4 10-10 10-5 0-10-5-10-10s5-10 10-10c6 0 10 5 10 10zm-10-8c-4 0-8 4-8 8 0 5 4 8 8 8 5 0 9-3 9-8 0-4-4-8-9-8z"/><path fill="#0b7abf" class="fil23" d="m1352 2275c0 6-4 10-10 10-5 0-10-4-10-10 0-5 5-10 10-10 6 0 10 5 10 10zm-10-8c-4 0-8 4-8 8 0 5 4 8 8 8 5 0 8-3 8-8 0-4-3-8-8-8z"/><path fill="#010101" class="fil24" d="m1374 2275c0 6-5 10-10 10-6 0-10-4-10-10 0-5 4-10 10-10 5 0 10 5 10 10zm-10-8c-5 0-9 4-9 8 0 5 4 8 9 8 4 0 8-3 8-8 0-4-4-8-8-8z"/><path fill="#e32544" class="fil25" d="m1395 2275c0 6-4 10-10 10-5 0-10-4-10-10 0-5 5-10 10-10 6 0 10 5 10 10zm-10-8c-4 0-8 4-8 8 0 5 4 8 8 8 5 0 8-3 8-8 0-4-3-8-8-8z"/><path fill="#f8b51b" class="fil21" d="m1343 2285v-1-1h2v1 1h-2z"/><path fill="#099146" class="fil22" d="m1365 2285l-1-1 1-1h1v1 1h-1zm12-9h-2v-1-1c1 0 1 1 2 1v1z"/><path fill="#f8b51b" class="fil21" d="m1356 2276h-2l-1-2h1s1 0 2 1v1z"/></g></svg>
