<?xml version="1.0" encoding="utf-8"?>
<!-- Generator: Adobe Illustrator 14.0.0, SVG Export Plug-In . SVG Version: 6.00 Build 43363)  -->
<!DOCTYPE svg PUBLIC "-//W3C//DTD SVG 1.1//EN" "http://www.w3.org/Graphics/SVG/1.1/DTD/svg11.dtd">
<svg version="1.1" id="Слой_1" xmlns="http://www.w3.org/2000/svg" xmlns:xlink="http://www.w3.org/1999/xlink" x="0px" y="0px"
	 width="64px" height="64px" viewBox="0 0 64 64" enable-background="new 0 0 64 64" xml:space="preserve">
<g>
	<path fill="#58595B" d="M16.285,28.115L24.65,56.52l-11.356,3.344L4.928,31.466L16.285,28.115 M18.312,24.384l-2.88,0.851
		l-11.35,3.351L1.2,29.437l0.847,2.88l8.37,28.4l0.842,2.873l2.885-0.846l11.353-3.342l2.877-0.851l-0.847-2.878l-8.365-28.409
		L18.312,24.384L18.312,24.384z"/>
	<path fill="#58595B" d="M61.085,35.423c-0.1,1.895-1.182,3.523-2.734,4.431c0.076,0.419,0.105,0.839,0.076,1.275
		c-0.123,2.296-1.674,4.181-3.744,4.913c-0.049,0.498-0.16,1.024-0.369,1.579c-0.703,1.885-3.18,2.44-5.441,2.44
		c-0.684,0-1.348-0.058-1.936-0.132c-2.533-0.331-7.07-0.654-11.85-1.085c-1.616-0.146-3.021-0.207-4.236-0.207
		c-2.636,0-4.361,0.273-5.415,0.527l-6.135-20.818c4.033-3.213,10.797-10.638,13.003-14.696c1.362-4.447,0.924-9.726,0.811-10.757
		c-0.258-2.207,3.862-2.483,4.388-2.483c2.277,0,4.885,4.113,4.279,11.646c-0.088,1.041-0.313,2.23-0.461,3.455
		c-0.086,1.065-0.133,2.016-0.135,2.886C41.114,21.246,51.364,21.5,54.987,21.5c0.773,0,1.246-0.011,1.246-0.011
		c3.625,0,6.566,2.941,6.566,6.57c0,1.933-0.846,3.636-2.178,4.842C60.962,33.666,61.142,34.52,61.085,35.423z"/>
</g>
</svg>
