<?xml version="1.0" encoding="utf-8"?>
<!-- Generator: Adobe Illustrator 14.0.0, SVG Export Plug-In . SVG Version: 6.00 Build 43363)  -->
<!DOCTYPE svg PUBLIC "-//W3C//DTD SVG 1.1//EN" "http://www.w3.org/Graphics/SVG/1.1/DTD/svg11.dtd">
<svg version="1.1" id="Слой_1" xmlns="http://www.w3.org/2000/svg" xmlns:xlink="http://www.w3.org/1999/xlink" x="0px" y="0px"
	 width="64px" height="64px" viewBox="0 0 64 64" enable-background="new 0 0 64 64" xml:space="preserve">
<g>
	<path fill="#58595B" d="M43.849,36.012c-2.647-1.262-5.485-2.058-8.382-2.404c0.099-0.683,0.194-1.373,0.295-2.06
		c0.641-0.41,1.1-1.015,1.142-1.519c0.076-0.643,0.151-1.278,0.226-1.914c0.091,0.092,0.211,0.159,0.347,0.174
		c0.304,0.029,0.58-0.192,0.607-0.497l0.306-2.942c0.035-0.309-0.191-0.574-0.494-0.607c-0.115-0.014-0.229,0.012-0.327,0.064
		c0.066-0.563,0.136-1.119,0.198-1.683c0.051-0.763,0.432-2.811-1.045-4.128c-2.139-2.098-6.845-2.098-8.981,0
		c-1.476,1.317-1.1,3.365-1.044,4.128c0.061,0.564,0.129,1.12,0.194,1.683c-0.095-0.053-0.208-0.078-0.327-0.064
		c-0.299,0.033-0.529,0.298-0.497,0.607l0.308,2.942c0.033,0.305,0.304,0.526,0.606,0.497c0.136-0.015,0.259-0.082,0.351-0.174
		c0.072,0.635,0.146,1.271,0.218,1.914c0.045,0.504,0.504,1.108,1.153,1.519c0.095,0.687,0.189,1.375,0.288,2.06
		c-2.891,0.347-5.734,1.143-8.387,2.404c-0.855,0.452-1.457,1.615-1.365,2.513c0.098,1.037,0.203,2.072,0.311,3.107
		c0.092,0.9,0.864,1.795,1.719,1.956c7.271,1.167,14.65,1.167,21.918,0c0.86-0.161,1.633-1.056,1.726-1.956
		c0.105-1.035,0.206-2.07,0.307-3.107C45.305,37.627,44.709,36.464,43.849,36.012z"/>
	<rect x="0.111" y="30.693" fill="#58595B" width="10.024" height="2.614"/>
	<rect x="53.77" y="30.693" fill="#58595B" width="10.023" height="2.614"/>
	
		<rect x="7.968" y="49.666" transform="matrix(-0.7072 0.7071 -0.7071 -0.7072 58.2007 77.8401)" fill="#58595B" width="10.024" height="2.613"/>
	
		<rect x="45.91" y="11.724" transform="matrix(-0.7071 0.7071 -0.7071 -0.7071 96.1455 -13.7623)" fill="#58595B" width="10.025" height="2.613"/>
	
		<rect x="7.969" y="11.723" transform="matrix(-0.7071 -0.7071 0.7071 -0.7071 12.9466 31.4225)" fill="#58595B" width="10.024" height="2.613"/>
	
		<rect x="45.911" y="49.665" transform="matrix(-0.7072 -0.7071 0.7071 -0.7072 50.8933 123.022)" fill="#58595B" width="10.024" height="2.614"/>
	<rect x="30.645" y="53.817" fill="#58595B" width="2.615" height="10.023"/>
	<rect x="30.645" y="0.159" fill="#58595B" width="2.615" height="10.024"/>
</g>
</svg>
