<?xml version="1.0" encoding="utf-8"?>
<!-- Generator: Adobe Illustrator 14.0.0, SVG Export Plug-In . SVG Version: 6.00 Build 43363)  -->
<!DOCTYPE svg PUBLIC "-//W3C//DTD SVG 1.1//EN" "http://www.w3.org/Graphics/SVG/1.1/DTD/svg11.dtd">
<svg version="1.1" id="Слой_1" xmlns="http://www.w3.org/2000/svg" xmlns:xlink="http://www.w3.org/1999/xlink" x="0px" y="0px"
	 width="64px" height="64px" viewBox="0 0 64 64" enable-background="new 0 0 64 64" xml:space="preserve">
<path fill="#58595B" d="M56.771,43.431c-5.675-2.704-11.753-4.412-17.953-5.15c0.208-1.464,0.411-2.941,0.627-4.417
	c1.373-0.88,2.358-2.176,2.444-3.252c0.166-1.378,0.324-2.734,0.485-4.098c0.197,0.192,0.453,0.342,0.744,0.375
	c0.65,0.061,1.242-0.414,1.3-1.068l0.655-6.307c0.074-0.656-0.41-1.228-1.056-1.298c-0.249-0.029-0.494,0.029-0.707,0.143
	c0.144-1.207,0.293-2.4,0.427-3.608c0.11-1.634,0.926-6.02-2.238-8.844c-4.578-4.491-14.658-4.491-19.233,0
	c-3.163,2.825-2.356,7.21-2.241,8.844c0.134,1.208,0.276,2.401,0.415,3.608c-0.201-0.114-0.442-0.172-0.699-0.143
	c-0.638,0.071-1.134,0.643-1.063,1.298l0.659,6.307c0.07,0.654,0.654,1.129,1.298,1.068c0.295-0.034,0.557-0.183,0.757-0.375
	c0.15,1.364,0.311,2.72,0.462,4.098c0.098,1.077,1.081,2.373,2.472,3.252c0.201,1.476,0.403,2.943,0.615,4.417
	c-6.193,0.738-12.282,2.446-17.97,5.15c-1.827,0.966-3.115,3.451-2.921,5.378c0.208,2.224,0.432,4.439,0.669,6.656
	c0.196,1.932,1.846,3.845,3.68,4.191c15.576,2.503,31.377,2.503,46.952,0c1.841-0.347,3.496-2.26,3.695-4.191
	c0.22-2.217,0.441-4.433,0.653-6.656C59.892,46.882,58.616,44.396,56.771,43.431z"/>
</svg>
