<?xml version="1.0" encoding="utf-8"?>
<!-- Generator: Adobe Illustrator 14.0.0, SVG Export Plug-In . SVG Version: 6.00 Build 43363)  -->
<!DOCTYPE svg PUBLIC "-//W3C//DTD SVG 1.1//EN" "http://www.w3.org/Graphics/SVG/1.1/DTD/svg11.dtd">
<svg version="1.1" id="Слой_1" xmlns="http://www.w3.org/2000/svg" xmlns:xlink="http://www.w3.org/1999/xlink" x="0px" y="0px"
	 width="64px" height="64px" viewBox="0 0 64 64" enable-background="new 0 0 64 64" xml:space="preserve">
<g>
	<polygon fill="#003451" points="19.363,16.251 19.363,63.645 32,57.324 44.638,63.645 44.638,16.251 	"/>
	<polygon fill="#3D5D74" points="19.363,16.251 19.363,63.645 32,57.324 32.021,16.251 	"/>
	<path fill="#D73B2D" d="M57.276,25.729c0-2.573-1.54-4.783-3.747-5.769c1.419-1.957,1.648-4.64,0.361-6.868
		c-1.287-2.229-3.726-3.373-6.13-3.123c0.251-2.403-0.893-4.843-3.121-6.13c-2.23-1.286-4.915-1.058-6.871,0.362
		C36.783,1.993,34.573,0.454,32,0.454S27.217,1.993,26.231,4.2c-1.957-1.418-4.641-1.647-6.869-0.361
		C17.133,5.126,15.99,7.566,16.24,9.97c-2.404-0.25-4.843,0.894-6.13,3.122c-1.286,2.228-1.057,4.912,0.362,6.868
		c-2.207,0.986-3.748,3.195-3.748,5.769c0,2.573,1.541,4.783,3.748,5.77c-1.418,1.958-1.647,4.641-0.36,6.87
		c1.169,2.025,3.294,3.159,5.478,3.159c0.217,0,0.435-0.02,0.652-0.042c-0.252,2.405,0.892,4.846,3.122,6.136
		c0.995,0.571,2.082,0.846,3.153,0.846c1.329,0,2.632-0.425,3.715-1.21c0.986,2.208,3.196,3.75,5.77,3.75
		c2.573,0,4.783-1.542,5.769-3.751c1.083,0.786,2.387,1.211,3.715,1.211c1.073,0,2.159-0.274,3.155-0.846
		c2.229-1.29,3.373-3.73,3.121-6.136c0.217,0.022,0.435,0.042,0.651,0.042c2.185,0,4.309-1.134,5.479-3.159
		c1.287-2.229,1.059-4.913-0.359-6.87C55.736,30.512,57.276,28.302,57.276,25.729z"/>
	<path fill="#F7AE00" d="M49.378,25.729c0,9.598-7.78,17.377-17.378,17.377c-9.597,0-17.377-7.779-17.377-17.377
		c0-9.596,7.78-17.378,17.377-17.378C41.598,8.351,49.378,16.133,49.378,25.729"/>
	<polygon fill="#D73B2D" points="32,30.325 37.706,33.326 36.618,26.971 41.235,22.472 34.854,21.544 32,15.761 29.147,21.544 
		22.767,22.472 27.383,26.971 26.293,33.326 	"/>
</g>
</svg>
