<?xml version="1.0" encoding="utf-8"?>
<!-- Generator: Adobe Illustrator 14.0.0, SVG Export Plug-In . SVG Version: 6.00 Build 43363)  -->
<!DOCTYPE svg PUBLIC "-//W3C//DTD SVG 1.1//EN" "http://www.w3.org/Graphics/SVG/1.1/DTD/svg11.dtd">
<svg version="1.1" id="Слой_1" xmlns="http://www.w3.org/2000/svg" xmlns:xlink="http://www.w3.org/1999/xlink" x="0px" y="0px"
	 width="64px" height="64px" viewBox="0 0 64 64" enable-background="new 0 0 64 64" xml:space="preserve">
<path fill="#FCC200" d="M32.001,61.797C15.545,61.797,2.204,48.456,2.204,32c0-16.457,13.341-29.796,29.797-29.796
	c16.455,0,29.796,13.339,29.796,29.796C61.797,48.456,48.456,61.797,32.001,61.797"/>
<path fill="#FFFFFF" d="M13.825,45.729c-0.914,0-1.657-0.744-1.657-1.656v-24.14c0-0.913,0.743-1.656,1.657-1.656h33.96
	c0.915,0,1.654,0.744,1.654,1.656v24.14c0,0.914-0.739,1.658-1.654,1.658h-33.96V45.729z"/>
<rect x="14.063" y="22.83" fill="#B8DFEB" width="8.153" height="0.734"/>
<rect x="41.626" y="22.83" fill="#B8DFEB" width="5.181" height="0.734"/>
<rect x="35.09" y="22.83" fill="#B8DFEB" width="5.182" height="0.734"/>
<rect x="28.556" y="22.83" fill="#B8DFEB" width="5.18" height="0.734"/>
<rect x="14.063" y="26.354" fill="#E95B1D" width="14.743" height="16.226"/>
<path fill="#D83819" d="M13.864,26.156v16.622h0.199h14.743h0.199V42.58V26.355v-0.199H13.864z M21.167,34.467l-6.906,7.599V26.866
	L21.167,34.467z M14.511,26.553h13.849l-6.925,7.62L14.511,26.553z M28.607,26.866v15.201l-6.905-7.6L28.607,26.866z M14.511,42.383
	l6.923-7.621l6.924,7.621H14.511z"/>
<rect x="30.966" y="26.663" fill="#E95B1D" width="8.745" height="1.193"/>
<rect x="30.966" y="29.698" fill="#B8DFEB" width="15.808" height="0.733"/>
<rect x="30.966" y="31.953" fill="#B8DFEB" width="13.437" height="0.736"/>
<rect x="30.966" y="34.208" fill="#B8DFEB" width="14.886" height="0.735"/>
<rect x="30.966" y="36.464" fill="#B8DFEB" width="11.585" height="0.736"/>
<rect x="30.966" y="39.325" fill="#E95B1D" width="5.115" height="2.146"/>
<rect x="31.823" y="40.029" fill="#FFFFFF" width="3.399" height="0.736"/>
<path fill="#A0C9D9" d="M48.493,18.156h-0.708h-33.96h-0.706c-0.591,0-1.07,0.479-1.07,1.07v0.706v1.318v22.822
	c0,0.98,0.795,1.777,1.776,1.777h33.96c0.982,0,1.775-0.799,1.775-1.777V21.25v-1.318v-0.706
	C49.561,18.635,49.082,18.156,48.493,18.156z M19.241,19.199h28.764v1.073H19.241V19.199z M16.977,19.14
	c0.329,0,0.596,0.267,0.596,0.597s-0.268,0.597-0.596,0.597c-0.33,0-0.596-0.267-0.596-0.597S16.647,19.14,16.977,19.14z
	 M15.308,19.14c0.329,0,0.595,0.267,0.595,0.597s-0.266,0.597-0.595,0.597s-0.599-0.267-0.599-0.597S14.979,19.14,15.308,19.14z
	 M13.637,19.14c0.33,0,0.598,0.267,0.598,0.597s-0.269,0.597-0.598,0.597c-0.328,0-0.595-0.267-0.595-0.597
	S13.309,19.14,13.637,19.14z M49.323,44.072c0,0.847-0.69,1.539-1.538,1.539h-33.96c-0.848,0-1.537-0.692-1.537-1.539V21.25h37.035
	V44.072z"/>
</svg>
