<?xml version="1.0" encoding="utf-8"?>
<!-- Generator: Adobe Illustrator 14.0.0, SVG Export Plug-In . SVG Version: 6.00 Build 43363)  -->
<!DOCTYPE svg PUBLIC "-//W3C//DTD SVG 1.1//EN" "http://www.w3.org/Graphics/SVG/1.1/DTD/svg11.dtd">
<svg version="1.1" id="Слой_1" xmlns="http://www.w3.org/2000/svg" xmlns:xlink="http://www.w3.org/1999/xlink" x="0px" y="0px"
	 width="64px" height="64px" viewBox="0 0 64 64" enable-background="new 0 0 64 64" xml:space="preserve">
<path fill-rule="evenodd" clip-rule="evenodd" fill="#5C5A59" d="M50.382,34.214c-0.919-1.829-3.465-3.35-6.849-0.71
	c-4.572,3.569-11.918,3.569-11.918,3.569s-7.347,0-11.919-3.569c-3.384-2.64-5.93-1.119-6.849,0.71
	c-1.603,3.188,0.208,4.729,4.294,7.326c3.49,2.219,8.285,3.048,11.383,3.357l-2.585,2.56c-3.642,3.606-7.156,7.087-9.595,9.501
	c-1.458,1.443-1.458,3.785,0,5.23l0.44,0.435c0.727,0.72,1.68,1.08,2.634,1.082h0.013c0.954-0.002,1.906-0.362,2.633-1.082
	l9.595-9.502c3.641,3.605,7.155,7.086,9.593,9.502c1.458,1.443,3.822,1.443,5.28,0l0.44-0.437c1.459-1.444,1.458-3.785,0-5.229
	l-9.595-9.501l-2.593-2.567c3.099-0.315,7.843-1.148,11.305-3.35C50.175,38.942,51.985,37.401,50.382,34.214L50.382,34.214z
	 M31.615,8.19c4.423,0,8.01,3.552,8.01,7.933c0,4.381-3.587,7.933-8.01,7.933c-4.424,0-8.01-3.551-8.01-7.933
	C23.604,11.743,27.19,8.19,31.615,8.19L31.615,8.19z M31.615,32.246c8.992,0,16.281-7.219,16.281-16.123
	C47.896,7.219,40.606,0,31.615,0c-8.993,0-16.282,7.219-16.282,16.123C15.333,25.027,22.622,32.246,31.615,32.246L31.615,32.246z"/>
</svg>
