<?xml version="1.0" encoding="UTF-8" standalone="no"?>
<svg xmlns:rdf="http://www.w3.org/1999/02/22-rdf-syntax-ns#" xmlns="http://www.w3.org/2000/svg" height="64" width="64" version="1.1" xmlns:cc="http://creativecommons.org/ns#" xmlns:dc="http://purl.org/dc/elements/1.1/" viewBox="0 0 64.000001 64.000001">
 <g transform="translate(0 -988.36)">
  <g transform="matrix(2 0 0 2 -558 -370.24)" fill="#f66">
   <path d="m295 696c-4.4 0-8-3.6-8-8s3.6-8 8-8 8 3.6 8 8-3.6 8-8 8zm0-12.2c-2.3 0-4.2 1.9-4.2 4.2s1.9 4.2 4.2 4.2 4.2-1.9 4.2-4.2-1.9-4.2-4.2-4.2z"/>
   <path d="m303.6 696.8c-0.7-0.9-1.9-1-2.8-0.4 0 0-2.2 1.6-5.8 1.6s-5.8-1.6-5.8-1.6c-0.9-0.7-2.1-0.5-2.8 0.4s-0.5 2.1 0.4 2.8c0.1 0.1 2.2 1.7 5.7 2.2l-5.3 5.4c-0.8 0.8-0.8 2.1 0 2.8 0.4 0.4 0.9 0.6 1.4 0.6s1-0.2 1.4-0.6l5-5.1 5 5.1c0.4 0.4 0.9 0.6 1.4 0.6s1-0.2 1.4-0.6c0.8-0.8 0.8-2 0-2.8l-5.3-5.4c3.5-0.6 5.6-2.2 5.7-2.2 0.9-0.7 1.1-2 0.4-2.8z"/>
  </g>
 </g>
</svg>
