<?xml version="1.0" encoding="utf-8"?>
<!-- Generator: Adobe Illustrator 14.0.0, SVG Export Plug-In . SVG Version: 6.00 Build 43363)  -->
<!DOCTYPE svg PUBLIC "-//W3C//DTD SVG 1.1//EN" "http://www.w3.org/Graphics/SVG/1.1/DTD/svg11.dtd">
<svg version="1.1" id="Слой_1" xmlns="http://www.w3.org/2000/svg" xmlns:xlink="http://www.w3.org/1999/xlink" x="0px" y="0px"
	 width="64px" height="64px" viewBox="0 0 64 64" enable-background="new 0 0 64 64" xml:space="preserve">

	<path fill="#FCC200" d="M31.917,61.947C15.671,61.947,2.5,48.777,2.5,32.529c0-16.246,13.171-29.415,29.417-29.415
		c16.244,0,29.415,13.168,29.415,29.415C61.332,48.777,48.161,61.947,31.917,61.947"/>
	<path fill="#FFFFFF" d="M13.767,55.591H50.19c1.343-1.06,2.591-2.231,3.729-3.506V4.412H9.914v47.531
		C11.086,53.271,12.375,54.492,13.767,55.591z"/>
	<path fill="#FFFFFF" d="M53.92,1.219c0-0.182-0.15-0.331-0.333-0.331C53.77,0.888,53.92,1.038,53.92,1.219z"/>
	<path fill="#D2E7F2" d="M31.979,61.916c6.879,0,13.201-2.368,18.211-6.325H13.767C18.777,59.548,25.1,61.916,31.979,61.916z"/>
	<path fill="#D2E7F2" d="M10.246,0.888c-0.185,0-0.332,0.149-0.332,0.331C9.914,1.038,10.061,0.888,10.246,0.888z"/>
	<path fill="#D2E7F2" d="M53.587,0.888H10.246c-0.185,0-0.332,0.15-0.332,0.331v3.193H53.92V1.219
		C53.92,1.038,53.77,0.888,53.587,0.888z"/>
	<rect x="9.915" y="15.891" fill="#2F97CB" width="44.005" height="16.638"/>
	<rect x="19.917" y="21.042" fill="#D2E7F2" width="23.911" height="1.569"/>
	<rect x="17.367" y="24.141" fill="#D2E7F2" width="29.012" height="0.393"/>
	<rect x="16.189" y="25.563" fill="#D2E7F2" width="31.37" height="0.394"/>
	<rect x="20.035" y="26.986" fill="#D2E7F2" width="23.677" height="0.393"/>
	<rect x="26.03" y="7.927" fill="#D2E7F2" width="11.773" height="2.781"/>
	<rect x="15.526" y="12.263" fill="#A0C9D9" width="5.827" height="0.392"/>
	<rect x="22.265" y="12.263" fill="#A0C9D9" width="5.827" height="0.392"/>
	<rect x="29.003" y="12.263" fill="#A0C9D9" width="5.826" height="0.392"/>
	<rect x="35.743" y="12.263" fill="#A0C9D9" width="5.825" height="0.392"/>
	<rect x="42.479" y="12.263" fill="#A0C9D9" width="5.828" height="0.392"/>
	<polygon fill="#FFFFFF" points="51.646,23.376 51.361,23.585 51.687,24.033 50.417,24.033 50.417,24.387 51.686,24.387 
		51.361,24.836 51.646,25.044 52.25,24.209 	"/>
	<polygon fill="#FFFFFF" points="13.416,24.033 12.147,24.033 12.474,23.585 12.188,23.376 11.581,24.209 12.188,25.044 
		12.474,24.836 12.148,24.387 13.416,24.387 	"/>
	<rect x="13.608" y="34.809" fill="#D2E7F2" width="10.66" height="10.662"/>
	<path fill="#A0C9D9" d="M24.444,34.632H13.432v11.013h11.013L24.444,34.632L24.444,34.632z M13.785,35.233l4.903,4.905
		l-4.903,4.903V35.233z M14.035,34.984h9.807l-4.903,4.904L14.035,34.984z M18.938,40.389l4.901,4.902h-9.803L18.938,40.389z
		 M19.188,40.138l4.903-4.904v9.809L19.188,40.138z"/>
	<rect x="26.587" y="34.809" fill="#D2E7F2" width="10.661" height="10.662"/>
	<path fill="#A0C9D9" d="M26.41,34.632v11.013h11.012V34.632H26.41z M26.765,35.234l4.902,4.904l-4.902,4.903V35.234z
		 M27.013,34.984h9.805l-4.901,4.904L27.013,34.984z M31.917,40.388l4.901,4.903h-9.802L31.917,40.388z M32.167,40.138l4.906-4.907
		v9.813L32.167,40.138z"/>
	<rect x="39.564" y="34.809" fill="#D2E7F2" width="10.66" height="10.662"/>
	<path fill="#A0C9D9" d="M39.391,34.632v11.013h11.012V34.632H39.391z M39.744,35.237l4.901,4.901l-4.901,4.9V35.237z
		 M39.993,34.984H49.8l-4.904,4.904L39.993,34.984z M44.896,40.389l4.903,4.902h-9.805L44.896,40.389z M45.146,40.139l4.903-4.904
		v9.81L45.146,40.139z"/>
	<rect x="13.432" y="47.891" fill="#D2E7F2" width="10.789" height="0.391"/>
	<rect x="13.432" y="48.912" fill="#D2E7F2" width="9.816" height="0.393"/>
	<rect x="13.432" y="49.93" fill="#D2E7F2" width="10.789" height="0.396"/>
	<rect x="13.432" y="50.952" fill="#D2E7F2" width="8.611" height="0.392"/>
	<rect x="13.432" y="46.92" fill="#2F97CB" width="5.828" height="0.391"/>
	<rect x="26.41" y="47.891" fill="#D2E7F2" width="10.789" height="0.391"/>
	<rect x="26.41" y="48.912" fill="#D2E7F2" width="9.816" height="0.393"/>
	<rect x="26.41" y="49.93" fill="#D2E7F2" width="10.789" height="0.396"/>
	<rect x="26.41" y="50.952" fill="#D2E7F2" width="8.609" height="0.392"/>
	<rect x="26.41" y="46.92" fill="#2F97CB" width="5.828" height="0.391"/>
	<rect x="39.389" y="47.891" fill="#D2E7F2" width="10.786" height="0.391"/>
	<rect x="39.389" y="48.912" fill="#D2E7F2" width="9.815" height="0.393"/>
	<rect x="39.389" y="49.93" fill="#D2E7F2" width="10.786" height="0.396"/>
	<rect x="39.389" y="50.952" fill="#D2E7F2" width="8.611" height="0.392"/>
	<rect x="39.389" y="46.92" fill="#2F97CB" width="5.826" height="0.391"/>
	<path fill="#BBBE2F" d="M15.599,2.62c0,0.312-0.252,0.565-0.563,0.565c-0.313,0-0.566-0.253-0.566-0.565s0.254-0.564,0.566-0.564
		C15.347,2.055,15.599,2.308,15.599,2.62"/>
	<path fill="#FECB00" d="M13.757,2.62c0,0.312-0.251,0.565-0.564,0.565c-0.311,0-0.564-0.253-0.564-0.565s0.253-0.564,0.564-0.564
		C13.506,2.055,13.757,2.308,13.757,2.62"/>
	<path fill="#E95B1D" d="M11.916,2.62c0,0.312-0.251,0.565-0.565,0.565c-0.313,0-0.563-0.253-0.563-0.565s0.251-0.564,0.563-0.564
		C11.665,2.055,11.916,2.308,11.916,2.62"/>

</svg>
