<?xml version="1.0" encoding="utf-8"?>
<!-- Generator: Adobe Illustrator 14.0.0, SVG Export Plug-In . SVG Version: 6.00 Build 43363)  -->
<!DOCTYPE svg PUBLIC "-//W3C//DTD SVG 1.1//EN" "http://www.w3.org/Graphics/SVG/1.1/DTD/svg11.dtd">
<svg version="1.1" id="Слой_1" xmlns="http://www.w3.org/2000/svg" xmlns:xlink="http://www.w3.org/1999/xlink" x="0px" y="0px"
	 width="64px" height="64px" viewBox="0 0 64 64" enable-background="new 0 0 64 64" xml:space="preserve">
<path fill-rule="evenodd" clip-rule="evenodd" fill="#58595B" d="M36.036,11.878c0.99,0.276,1.935,0.609,2.831,0.982
	c4.897,2.045,8.038,5.284,9.693,9.097c1.639,3.775,1.795,8.061,0.728,12.266c-0.24,0.951-0.55,1.91-0.922,2.873l-5.042-1.598
	c0.339-0.832,0.618-1.693,0.843-2.574c0.781-3.091,0.694-6.194-0.464-8.859c-1.138-2.618-3.357-4.867-6.854-6.33
	c-0.735-0.306-1.531-0.578-2.406-0.82L36.036,11.878z M41.637,58.493l2.934-1.5c-1.649-7.619-8.742-16.408-10.29-16.848
	l-1.547,0.795l-1.555,0.795l-2.29,1.17l-0.456,0.234l-3.582,1.832c-5.021-7.559-5.902-10.146-9.182-18.875l3.133-1.604l4.588-2.346
	l1.337-0.685c0.611-2.725-3.999-15.339-7.473-18.277l-2.63,1.338l-2.335,1.195l-1.363,0.694L9.572,7.106
	c-4.625,2.452-6.66,5.643-6.11,9.572l0.03,0.167l-0.015,0.011c3.326,17.189,9.956,30.799,21.737,43.584
	c2.862,2.746,6.646,2.961,11.333,0.652l1.795-0.92L41.637,58.493z M34.969,24.474c-2.599-0.819-5.369,0.617-6.196,3.216
	c-0.82,2.593,0.619,5.37,3.21,6.19c2.601,0.818,5.377-0.621,6.196-3.215C38.999,28.069,37.561,25.298,34.969,24.474 M39.378,1.323
	l-1.593,5.045c0.997,0.234,1.987,0.536,2.947,0.899c4.988,1.89,9.244,5.455,11.921,10.167c2.675,4.734,3.751,10.638,2.366,17.199
	c-0.295,1.361-0.688,2.758-1.198,4.188l5.035,1.594c0.564-1.57,0.998-3.133,1.323-4.672c1.679-7.932,0.348-15.12-2.924-20.91
	C53.967,9.026,48.723,4.646,42.604,2.325C41.553,1.928,40.478,1.596,39.378,1.323"/>
</svg>
