<?xml version="1.0" encoding="utf-8"?>
<!-- Generator: Adobe Illustrator 14.0.0, SVG Export Plug-In . SVG Version: 6.00 Build 43363)  -->
<!DOCTYPE svg PUBLIC "-//W3C//DTD SVG 1.1//EN" "http://www.w3.org/Graphics/SVG/1.1/DTD/svg11.dtd">
<svg version="1.1" id="Слой_1" xmlns="http://www.w3.org/2000/svg" xmlns:xlink="http://www.w3.org/1999/xlink" x="0px" y="0px"
	 width="64px" height="64px" viewBox="0 0 64 64" enable-background="new 0 0 64 64" xml:space="preserve">
<path fill="#5C5A59" d="M61.364,59.062H2.641c-1.499,0-2.711-1.212-2.711-2.71V7.414c0-1.499,1.212-2.71,2.711-2.71h58.724
	c1.498,0,2.71,1.212,2.71,2.71v48.939C64.074,57.851,62.863,59.062,61.364,59.062 M5.351,53.643h53.304V10.122H5.351V53.643z"/>
<path fill="#5C5A59" d="M59.587,49.272c-0.625,0-1.255-0.215-1.764-0.651L46.93,39.283l-13.558,9.038L16.171,29.817L4.588,41.776
	c-1.048,1.081-2.77,1.102-3.833,0.063c-1.081-1.043-1.106-2.758-0.064-3.833l15.56-16.068l17.953,19.314l13.133-8.76l14.015,12.009
	c1.138,0.974,1.27,2.687,0.297,3.821C61.104,48.951,60.348,49.272,59.587,49.272"/>
<path fill="#5C5A59" d="M35.229,31.594c-5.355,0-9.72-4.361-9.72-9.72s4.364-9.718,9.72-9.718s9.713,4.359,9.713,9.718
	S40.586,31.594,35.229,31.594 M35.229,17.578c-2.367,0-4.3,1.927-4.3,4.296c0,2.368,1.933,4.298,4.3,4.298
	c2.364,0,4.292-1.93,4.292-4.298C39.521,19.505,37.594,17.578,35.229,17.578"/>
</svg>
