<?xml version="1.0" encoding="utf-8"?>
<!-- Generator: Adobe Illustrator 14.0.0, SVG Export Plug-In . SVG Version: 6.00 Build 43363)  -->
<!DOCTYPE svg PUBLIC "-//W3C//DTD SVG 1.1//EN" "http://www.w3.org/Graphics/SVG/1.1/DTD/svg11.dtd">
<svg version="1.1" id="Слой_1" xmlns="http://www.w3.org/2000/svg" xmlns:xlink="http://www.w3.org/1999/xlink" x="0px" y="0px"
	 width="64px" height="64px" viewBox="0 0 64 64" enable-background="new 0 0 64 64" xml:space="preserve">
<g>
	<path fill="#58595B" d="M23.796,44.126c-0.354-3.247-0.205-5.976,0.43-8.182c0.639-2.201,1.523-4.058,2.653-5.567
		c1.13-1.503,2.395-2.77,3.784-3.785c1.396-1.015,2.716-1.983,3.962-2.915c1.248-0.925,2.289-1.902,3.135-2.913
		c0.839-1.014,1.263-2.249,1.263-3.695c0-2.029-0.596-3.612-1.787-4.743c-1.19-1.131-3.349-1.7-6.483-1.7
		c-0.988,0-2.075,0.122-3.26,0.35c-1.193,0.232-2.362,0.552-3.526,0.955c-1.158,0.411-2.276,0.871-3.348,1.395
		c-1.07,0.523-1.989,1.072-2.742,1.653l-4.695-9.047c2.377-1.568,5.114-2.873,8.22-3.918c3.101-1.046,6.885-1.567,11.348-1.567
		c5.859,0,10.487,1.337,13.882,4.004c3.392,2.666,5.091,6.267,5.091,10.79c0,3.13-0.425,5.67-1.263,7.607
		c-0.84,1.946-1.915,3.57-3.216,4.875c-1.308,1.305-2.698,2.439-4.183,3.393c-1.479,0.959-2.868,1.975-4.177,3.047
		c-1.305,1.074-2.378,2.376-3.216,3.912c-0.84,1.542-1.264,3.557-1.264,6.05H23.796z M21.969,56.653c0-2.146,0.69-3.826,2.085-5.049
		c1.396-1.218,3.222-1.826,5.479-1.826c2.323,0,4.182,0.608,5.57,1.826c1.394,1.223,2.088,2.902,2.088,5.049
		c0,2.031-0.694,3.685-2.088,4.958c-1.388,1.276-3.247,1.918-5.57,1.918c-2.257,0-4.083-0.642-5.479-1.918
		C22.659,60.338,21.969,58.685,21.969,56.653z"/>
</g>
</svg>
