<?xml version="1.0" encoding="UTF-8" standalone="no"?>
<svg xmlns:rdf="http://www.w3.org/1999/02/22-rdf-syntax-ns#" xmlns="http://www.w3.org/2000/svg" height="64" width="64" version="1.1" xmlns:cc="http://creativecommons.org/ns#" xmlns:dc="http://purl.org/dc/elements/1.1/" viewBox="0 0 63.999999 64.000001">
 <g transform="translate(0 -988.362)">
  <g transform="matrix(2 0 0 2 -157.9 130.362)" fill="#f66">
   <path d="m95 457.9c-5 0-9.7-3-11.8-7.5l1.7-0.8c1.8 3.9 5.8 6.5 10.1 6.5 6.1 0 11.1-5 11.1-11.1s-5-11.1-11.1-11.1c-4.6 0-8.5 2.8-10.1 7.4l-1.8-0.6c1.9-5.2 6.5-8.6 11.9-8.6 7.1 0 12.9 5.8 12.9 12.9s-5.8 12.9-12.9 12.9z"/>
   <polygon points="84 440 90 440 90 442 82 442 82 434 84 434"/>
  </g>
 </g>
</svg>
