<?xml version="1.0" encoding="UTF-8" standalone="no"?>
<svg xmlns:rdf="http://www.w3.org/1999/02/22-rdf-syntax-ns#" xmlns="http://www.w3.org/2000/svg" height="64" width="64" version="1.1" xmlns:cc="http://creativecommons.org/ns#" xmlns:dc="http://purl.org/dc/elements/1.1/" viewBox="0 0 63.999999 64.000001">
 <g transform="translate(0 -988.362)">
  <g transform="matrix(2 0 0 2 -258.1 130.362)" fill="#f66">
   <path d="m145 457.9c-7.1 0-12.9-5.8-12.9-12.9s5.8-12.9 12.9-12.9c5.4 0 10 3.4 11.9 8.6l-1.8 0.6c-1.6-4.6-5.5-7.4-10.1-7.4-6.1 0-11.1 5-11.1 11.1s5 11.1 11.1 11.1c4.3 0 8.3-2.5 10.1-6.5l1.7 0.8c-2.1 4.6-6.8 7.5-11.8 7.5z"/>
   <polygon points="150 440 156 440 156 434 158 434 158 442 150 442"/>
  </g>
 </g>
</svg>
