<?xml version="1.0" encoding="utf-8"?>
<!-- Generator: Adobe Illustrator 14.0.0, SVG Export Plug-In . SVG Version: 6.00 Build 43363)  -->
<!DOCTYPE svg PUBLIC "-//W3C//DTD SVG 1.1//EN" "http://www.w3.org/Graphics/SVG/1.1/DTD/svg11.dtd">
<svg version="1.1" id="Слой_1" xmlns="http://www.w3.org/2000/svg" xmlns:xlink="http://www.w3.org/1999/xlink" x="0px" y="0px"
	 width="64px" height="64px" viewBox="0 0 64 64" enable-background="new 0 0 64 64" xml:space="preserve">
<path fill="#58595B" d="M60.226,38.45c1.101,2.208,1.723,4.71,1.723,7.357c0,9.148-7.419,16.558-16.572,16.558
	c-2.83,0-5.491-0.707-7.82-1.966c-1.698,0.319-3.443,0.486-5.232,0.486c-15.777,0-28.564-12.795-28.564-28.564
	c0-1.979,0.197-3.89,0.577-5.748c-1.449-2.458-2.283-5.325-2.283-8.381c0-9.147,7.417-16.557,16.572-16.557
	c3.238,0,6.257,0.929,8.813,2.533c1.585-0.273,3.224-0.417,4.885-0.417c15.775,0,28.563,12.787,28.563,28.57
	C60.886,34.423,60.658,36.472,60.226,38.45 M23.752,13.535c-2.405,0.895-4.27,2.185-5.545,3.853
	c-1.289,1.676-1.941,3.625-1.941,5.779c0,2.268,0.622,4.194,1.851,5.727c1.206,1.509,2.859,2.714,4.907,3.587
	c2.001,0.857,4.521,1.607,7.485,2.245c2.177,0.454,3.943,0.896,5.24,1.289c1.245,0.401,2.269,0.963,3.05,1.691
	c0.735,0.691,1.1,1.586,1.1,2.707c0,1.426-0.69,2.595-2.116,3.566c-1.448,0.991-3.39,1.501-5.749,1.501
	c-1.721,0-3.117-0.25-4.148-0.744c-1.032-0.484-1.836-1.114-2.397-1.85c-0.584-0.773-1.138-1.753-1.638-2.906
	c-0.455-1.068-1.024-1.895-1.677-2.449c-0.69-0.584-1.54-0.879-2.518-0.879c-1.198,0-2.199,0.371-2.98,1.107
	c-0.79,0.743-1.191,1.653-1.191,2.699c0,1.668,0.614,3.413,1.827,5.165c1.199,1.729,2.784,3.132,4.703,4.172
	c2.685,1.418,6.12,2.146,10.224,2.146c3.42,0,6.425-0.53,8.927-1.57c2.533-1.047,4.483-2.532,5.803-4.407
	c1.327-1.88,2.003-4.019,2.003-6.378c0-1.966-0.388-3.647-1.161-5.028c-0.767-1.366-1.852-2.503-3.224-3.398
	c-1.343-0.873-2.981-1.623-4.893-2.23c-1.872-0.599-3.996-1.16-6.311-1.661c-1.819-0.41-3.155-0.744-3.951-0.963
	c-0.773-0.213-1.547-0.516-2.298-0.888c-0.721-0.364-1.297-0.796-1.699-1.289c-0.387-0.478-0.569-1.016-0.569-1.668
	c0-1.062,0.577-1.957,1.768-2.738c1.235-0.812,2.896-1.229,4.952-1.229c2.2,0,3.807,0.372,4.763,1.107
	c0.995,0.751,1.851,1.813,2.563,3.17c0.615,1.055,1.169,1.798,1.706,2.268c0.577,0.516,1.404,0.766,2.466,0.766
	c1.161,0,2.146-0.41,2.929-1.221c0.78-0.804,1.176-1.737,1.176-2.753c0-1.069-0.305-2.162-0.896-3.261
	c-0.591-1.092-1.524-2.147-2.775-3.125c-1.252-0.979-2.837-1.768-4.718-2.352c-1.873-0.584-4.119-0.88-6.667-0.88
	C28.94,12.215,26.118,12.655,23.752,13.535"/>
</svg>
