<?xml version="1.0" encoding="utf-8"?>
<!-- Generator: Adobe Illustrator 14.0.0, SVG Export Plug-In . SVG Version: 6.00 Build 43363)  -->
<!DOCTYPE svg PUBLIC "-//W3C//DTD SVG 1.1//EN" "http://www.w3.org/Graphics/SVG/1.1/DTD/svg11.dtd">
<svg version="1.1" id="Слой_1" xmlns="http://www.w3.org/2000/svg" xmlns:xlink="http://www.w3.org/1999/xlink" x="0px" y="0px"
	 width="64px" height="64px" viewBox="0 0 64 64" enable-background="new 0 0 64 64" xml:space="preserve">
<g>
	<g>
		<polygon fill="#58595B" points="32,18.293 36.04,26.465 45.055,27.776 38.531,34.14 40.072,43.119 32,38.882 23.935,43.119 
			25.476,34.14 18.948,27.776 27.971,26.465 		"/>
	</g>
	<rect x="30.716" y="53.46" fill="#58595B" width="2.571" height="9.86"/>
	<rect x="30.716" y="0.664" fill="#58595B" width="2.571" height="9.863"/>
	<rect x="53.468" y="30.708" fill="#58595B" width="9.861" height="2.569"/>
	<rect x="0.673" y="30.708" fill="#58595B" width="9.863" height="2.569"/>
	
		<rect x="45.735" y="12.043" transform="matrix(0.707 -0.7072 0.7072 0.707 5.4197 39.736)" fill="#58595B" width="9.862" height="2.569"/>
	
		<rect x="8.403" y="49.374" transform="matrix(0.7071 -0.7071 0.7071 0.7071 -31.9147 24.2647)" fill="#58595B" width="9.863" height="2.569"/>
	
		<rect x="8.403" y="12.041" transform="matrix(-0.7071 -0.7071 0.7071 -0.7071 13.3397 32.1773)" fill="#58595B" width="9.862" height="2.57"/>
	
		<rect x="45.733" y="49.372" transform="matrix(-0.7072 -0.707 0.707 -0.7072 50.6798 122.3025)" fill="#58595B" width="9.862" height="2.569"/>
</g>
</svg>
