<?xml version="1.0" encoding="utf-8"?>
<!-- Generator: Adobe Illustrator 14.0.0, SVG Export Plug-In . SVG Version: 6.00 Build 43363)  -->
<!DOCTYPE svg PUBLIC "-//W3C//DTD SVG 1.1//EN" "http://www.w3.org/Graphics/SVG/1.1/DTD/svg11.dtd">
<svg version="1.1" id="Слой_1" xmlns="http://www.w3.org/2000/svg" xmlns:xlink="http://www.w3.org/1999/xlink" x="0px" y="0px"
	 width="64px" height="64px" viewBox="0 0 64 64" enable-background="new 0 0 64 64" xml:space="preserve">
<path fill="#5C5A59" d="M63.813,12.268c-2.342,1.038-4.857,1.739-7.496,2.055c2.694-1.616,4.763-4.173,5.737-7.222
	c-2.521,1.496-5.314,2.583-8.289,3.168c-2.381-2.538-5.772-4.123-9.526-4.123c-7.211,0-13.053,5.844-13.053,13.053
	c0,1.023,0.114,2.02,0.336,2.975C20.674,21.63,11.055,16.433,4.618,8.535c-1.123,1.928-1.768,4.171-1.768,6.563
	c0,4.529,2.304,8.524,5.808,10.865c-2.14-0.068-4.153-0.655-5.913-1.633c-0.001,0.055-0.001,0.109-0.001,0.164
	c0,6.325,4.499,11.601,10.471,12.8c-1.095,0.299-2.249,0.458-3.439,0.458c-0.842,0-1.659-0.083-2.457-0.233
	c1.662,5.185,6.482,8.959,12.194,9.063C15.046,50.083,9.417,52.17,3.302,52.17c-1.054,0-2.093-0.061-3.114-0.183
	c5.777,3.703,12.639,5.865,20.01,5.865c24.01,0,37.138-19.891,37.138-37.14c0-0.565-0.012-1.128-0.037-1.688
	C59.851,17.184,62.063,14.884,63.813,12.268L63.813,12.268z"/>
</svg>
