<?xml version="1.0" encoding="UTF-8" standalone="no"?>
<svg xmlns:rdf="http://www.w3.org/1999/02/22-rdf-syntax-ns#" xmlns="http://www.w3.org/2000/svg" height="64" width="64" version="1.1" xmlns:cc="http://creativecommons.org/ns#" xmlns:dc="http://purl.org/dc/elements/1.1/" viewBox="0 0 64.000001 64.000001">
 <g transform="translate(0 -988.36)">
  <path d="m61.2 1001.9c-2.2 1-4.4 1.6-7 2 2.4-1.6 4.4-3.8 5.4-6.6-2.4 1.4-5 2.4-7.6 3-2.2-2.4-5.4-3.8-8.8-3.8-6.6 0-12 5.4-12 12.2 0 1 0 1.8 0.4 2.8-10-0.4-19-5.4-25-12.6-1 1.8-1.6 3.8-1.6 6 0 4.2 2.2 8 5.4 10-2 0-3.8-0.6-5.6-1.6v0.2c0 5.8 4.2 10.8 9.8 11.8-1 0.2-2 0.4-3.2 0.4-0.8 0-1.6 0-2.2-0.2 1.6 4.8 6 8.4 11.4 8.4-4.2 3.2-9.4 5.2-15 5.2-1 0-2 0-2.8-0.2 5.4 3.4 11.6 5.4 18.6 5.4 22.2 0 34.4-18.4 34.4-34.4v-1.6c1.8-1.8 3.8-3.8 5.4-6.4z" fill="#f66"/>
 </g>
</svg>
