<?xml version="1.0" encoding="utf-8"?>
<!-- Generator: Adobe Illustrator 14.0.0, SVG Export Plug-In . SVG Version: 6.00 Build 43363)  -->
<!DOCTYPE svg PUBLIC "-//W3C//DTD SVG 1.1//EN" "http://www.w3.org/Graphics/SVG/1.1/DTD/svg11.dtd">
<svg version="1.1" id="Слой_1" xmlns="http://www.w3.org/2000/svg" xmlns:xlink="http://www.w3.org/1999/xlink" x="0px" y="0px"
	 width="64px" height="64px" viewBox="0 0 64 64" enable-background="new 0 0 64 64" xml:space="preserve">
<g>
	<path fill="#5C5A59" d="M61.7,3.952H2.314c-1.115,0-2.012,0.9-2.012,2.016v52.338c0,1.095,0.897,2.017,2.012,2.017H61.7
		c1.101,0,1.998-0.922,1.998-2.017V5.968C63.698,4.853,62.801,3.952,61.7,3.952 M59.681,54.419H17.907
		c-0.477,1.189-1.647,2.047-3.007,2.047c-1.374,0-2.524-0.857-3.014-2.047H4.328v-2.422h7.558c0.49-1.191,1.64-2.054,3.014-2.054
		c1.36,0,2.531,0.862,3.007,2.054h41.774V54.419z M59.681,46.211H4.328V7.983h55.353V46.211z"/>
	<path fill="#5C5A59" d="M40.789,26.146c1.016,0.593,1.016,1.553,0,2.145L25.738,36.98c-1.023,0.593-1.837,0.103-1.837-1.072V18.541
		c0-1.178,0.827-1.654,1.837-1.066L40.789,26.146z"/>
</g>
</svg>
