<?xml version="1.0" encoding="utf-8"?>
<!-- Generator: Adobe Illustrator 14.0.0, SVG Export Plug-In . SVG Version: 6.00 Build 43363)  -->
<!DOCTYPE svg PUBLIC "-//W3C//DTD SVG 1.1//EN" "http://www.w3.org/Graphics/SVG/1.1/DTD/svg11.dtd">
<svg version="1.1" id="Слой_1" xmlns="http://www.w3.org/2000/svg" xmlns:xlink="http://www.w3.org/1999/xlink" x="0px" y="0px"
	 width="64px" height="64px" viewBox="0 0 64 64" enable-background="new 0 0 64 64" xml:space="preserve">
<path fill-rule="evenodd" clip-rule="evenodd" fill="#5C5A59" d="M6.619,0.275h28.973c9.534,0,17.649,4.671,17.641,14.115
	c-0.008,7.886-2.862,10.953-8.729,14.422c0.502,0.413,3.863,1.415,4.991,1.972c1.808,0.891,2.871,1.791,4.061,3
	c3.329,3.385,3.948,6.477,3.948,11.784c0,12.315-11.911,18.508-23.383,18.508H6.496L6.619,0.275L6.619,0.275z M22.363,17.038
	l-0.002,8.285c7.463,0,14.476,0.982,14.476-7.109c0-7.492-7.934-6.257-14.481-6.257L22.363,17.038L22.363,17.038z M22.359,52.332
	c8.177,0,18.28,1.347,18.457-7.938c0.187-9.685-10.377-7.937-18.453-7.937L22.359,52.332L22.359,52.332z"/>
</svg>
