<?xml version="1.0" encoding="UTF-8" standalone="no"?>
<svg xmlns:rdf="http://www.w3.org/1999/02/22-rdf-syntax-ns#" xmlns="http://www.w3.org/2000/svg" height="64" width="64" version="1.1" xmlns:cc="http://creativecommons.org/ns#" xmlns:dc="http://purl.org/dc/elements/1.1/" viewBox="0 0 64.000001 64.000001">
 <g transform="translate(0 -988.36)">
  <path d="m31.115 1038.5h3.8921s1.1676-0.1946 1.7515-0.7784c0.58382-0.5839 0.58382-1.7515 0.58382-1.7515s0-5.0598 2.3353-5.8382 5.449 5.0598 8.5627 7.2004c2.3353 1.7515 4.2813 1.3623 4.2813 1.3623l8.5627-0.1946s4.476-0.1946 2.3353-3.8922c-0.19461-0.1946-1.1676-2.5298-6.422-7.395-5.449-5.0598-4.6706-4.0868 1.7515-12.844 3.8921-5.2543 5.449-8.368 5.0598-9.9249-0.38921-1.3622-3.3083-0.973-3.3083-0.973h-9.7303s-0.77843-0.1946-1.1676 0.1946c-0.58382 0.3892-0.77843 0.973-0.77843 0.973s-1.5569 4.0868-3.5029 7.5897c-4.2814 7.2004-6.0328 7.5896-6.6166 7.2004-1.5569-0.973-1.1676-4.2813-1.1676-6.422 0-7.0058 1.1676-9.9249-2.1407-10.703-0.97303-0.1946-1.7515-0.3892-4.476-0.3892-3.5029 0-6.422 0-7.9789 0.7785-1.1676 0.5838-1.9461 1.7514-1.3622 1.7514 0.58382 0 2.1407 0.3892 2.9191 1.3623 0.97303 1.3622 0.97303 4.2813 0.97303 4.2813s0.58382 8.3681-1.3622 9.3411c-1.3622 0.7784-3.1137-0.7784-7.0058-7.395-1.9461-3.3083-3.5029-7.2005-3.5029-7.2005s-0.19461-0.7784-0.77843-1.1676-1.5569-0.5838-1.5569-0.5838h-9.1465s-1.3622 0-1.9461 0.5838c-0.38921 0.5838 0 1.5568 0 1.5568s7.2005 16.736 15.374 25.299c7.2005 8.5627 15.569 7.9789 15.569 7.9789z" fill-rule="evenodd" clip-rule="evenodd" fill="#f66"/>
 </g>
</svg>
